<?xml version="1.0" encoding="utf-8"?>
<!-- Generator: Adobe Illustrator 26.5.0, SVG Export Plug-In . SVG Version: 6.00 Build 0)  -->
<svg version="1.1" id="Calque_1" xmlns="http://www.w3.org/2000/svg" xmlns:xlink="http://www.w3.org/1999/xlink" x="0px" y="0px"
	 viewBox="0 0 100 100" style="enable-background:new 0 0 100 100;" xml:space="preserve">
<style type="text/css">
	.st0{fill:none;stroke:#FCFCFC;stroke-width:2;stroke-miterlimit:10;}
</style>
<g>
	<path class="st0" d="M49.6,94c-8-0.1-16.2-1.1-24.1-4.1c-3.4-1.3-6.5-3-9-5.7c-1.9-2-2.8-4.4-2.8-7.2c0.3-9.6,3.7-17.9,10.4-24.9
		c1.4-1.5,3.4-1.5,4.8-0.3c1.4,1.3,1.4,3.3-0.1,4.8c-4.5,4.6-7.3,10.1-8.2,16.4c-0.2,1.2-0.2,2.4-0.3,3.6c-0.2,1.5,0.5,2.6,1.5,3.5
		c2,1.8,4.4,3,7,3.9c8.1,2.9,16.4,3.6,24.9,3.2c5.9-0.3,11.8-1.1,17.4-3.2c2.1-0.8,4.1-1.9,6-3.1c1.9-1.1,2.6-2.8,2.5-5.1
		c-0.6-7.4-3.3-13.7-8.5-19c-0.9-0.9-1.5-1.8-1.3-3.1c0.2-1.3,0.9-2.3,2.2-2.7c1.3-0.5,2.5-0.1,3.5,0.8c4.4,4.4,7.5,9.6,9.3,15.5
		c0.9,3.1,1.3,6.3,1.4,9.5c0.1,3.2-1.2,5.8-3.5,8c-3,2.8-6.7,4.5-10.5,5.8C64.9,93.1,57.5,93.9,49.6,94z"/>
	<path class="st0" d="M49.9,8.4c-12.6,0-22.9,10.4-22.9,23c0,12.8,10.3,23,23.1,23c12.5,0,23-10.4,23-22.8
		C73,18.7,62.8,8.4,49.9,8.4z M50.1,48.5c-9.4,0-17-7.6-17.1-17c0-9.3,7.6-17,16.9-17c9.5,0,17.1,7.6,17.1,17.2
		C67,40.8,59.3,48.5,50.1,48.5z"/>
</g>
</svg>
