<?xml version="1.0" encoding="utf-8"?>
<!-- Generator: Adobe Illustrator 26.5.0, SVG Export Plug-In . SVG Version: 6.00 Build 0)  -->
<svg version="1.1" id="Calque_1" xmlns="http://www.w3.org/2000/svg" xmlns:xlink="http://www.w3.org/1999/xlink" x="0px" y="0px"
	 viewBox="0 0 1600 500" style="enable-background:new 0 0 1600 500;" xml:space="preserve">
<style type="text/css">
	.st0{fill:#E6D7B7;}
	.st1{opacity:0.4;fill:#EFE3CE;}
	.st2{fill:#C9B389;}
	.st3{fill:#F4E9CD;}
</style>
<g>
	<g>
		<g>
			<path class="st0" d="M1198.8,254.1c0.2,10.5,8.1,19.6,18.9,20.8c3.5,0.4,6.8-0.1,9.9-1.2c1.3,4.4,5.2,7.9,10.1,8.5
				c3.2,0.4,6.2-0.6,8.5-2.3c3.9,6.3,10.6,10.9,18.6,11.8c10.3,1.2,19.9-4.1,24.8-12.6c2.2,3.6,5.9,6.2,10.4,6.7
				c5.7,0.7,10.9-2.2,13.7-6.8c1.6,0.6,3.2,1,4.9,1.2c11.7,1.3,22.3-7.1,23.7-18.8c1.3-11.7-7.1-22.3-18.8-23.6
				c-3.8-0.4-7.5,0.2-10.8,1.6c-2.8-7.1-9.3-12.4-17.4-13.3c-6.6-0.8-12.9,1.6-17.3,5.9c-1.8-3.3-5.1-5.7-9.1-6.1
				c-4.9-0.6-9.5,2-11.8,6.1c-3.7-7.4-10.9-12.9-19.7-13.9c-8.9-1-17.2,2.7-22.4,9.1c-1.7-0.9-3.6-1.5-5.6-1.7
				c-8.7-1-16.4,5.2-17.4,13.8C1191.2,245.3,1194,251,1198.8,254.1z"/>
		</g>
	</g>
</g>
<g>
	<g>
		<g>
			<path class="st0" d="M1505.8,206.1c-0.9-10.5-9.5-18.9-20.3-19.4c-3.5-0.1-6.8,0.6-9.8,1.9c-1.6-4.3-5.7-7.5-10.6-7.7
				c-3.2-0.1-6.1,1-8.3,3c-4.4-6-11.3-10.1-19.4-10.4c-10.4-0.4-19.6,5.5-23.8,14.3c-2.4-3.4-6.3-5.8-10.9-6
				c-5.7-0.2-10.7,3-13.1,7.8c-1.6-0.5-3.3-0.8-5-0.8c-11.8-0.5-21.7,8.6-22.2,20.4c-0.5,11.8,8.7,21.7,20.4,22.2
				c3.9,0.2,7.5-0.7,10.7-2.4c3.3,6.8,10.2,11.7,18.3,12c6.7,0.3,12.7-2.5,16.8-7.1c2,3.1,5.5,5.3,9.5,5.4c5,0.2,9.3-2.7,11.3-6.9
				c4.2,7.1,11.8,12.1,20.7,12.5c8.9,0.4,16.9-3.9,21.7-10.7c1.7,0.8,3.7,1.3,5.7,1.3c8.7,0.4,16-6.4,16.4-15.1
				C1514.1,214.4,1510.8,208.9,1505.8,206.1z"/>
		</g>
	</g>
</g>
<g>
	<path class="st1" d="M1540.7,79.5l-23.1,3.8l-25-25.5l-32.4-4c0,0,11.9,13.3,16,17.9c-11.1,1.4-27,3.4-27,3.4l38.1,29.2l4.9,49.7
		l17.5-24.7l-5.6-6.3l19.6-22.2l9.2-11.4l28,3.6L1540.7,79.5z"/>
	<polygon class="st1" points="1523.5,100.9 1503.9,123.1 1487.2,104.4 	"/>
	<path class="st1" d="M1523.5,100.9l-36.3,3.5l-38.1-29.2c0,0,15.9-2,27-3.4c5.8-0.7,10.2-1.3,10.4-1.3c0.3,0,9.3,7.4,18.4,15
		C1514.2,93.1,1523.5,100.9,1523.5,100.9z"/>
	<path class="st1" d="M1540.7,79.5l-8,10l-9.2,11.4c0,0-9.3-7.8-18.5-15.5l12.6-2.1L1540.7,79.5z"/>
</g>
<g>
	<path class="st2" d="M1495.6,291.6c-12.6,9-27,16-42.9,20.2c-70.7,18.9-143.4-23.1-162.2-93.8c-18.9-70.7,23.1-143.4,93.8-162.2
		c15.9-4.2,31.8-5.4,47.3-3.9c-43.6,31.2-65.6,87.2-50.9,142C1395.3,248.7,1442.3,286.3,1495.6,291.6z"/>
</g>
<g>
	<g>
		<g>
			<path class="st0" d="M1431.3,318.5c-3.8-20.9-22.5-36.2-44.2-35.2c-7,0.3-13.6,2.4-19.3,5.6c-4-8.4-12.8-14-22.7-13.5
				c-6.4,0.3-12.1,3.1-16.2,7.4c-9.8-11.3-24.5-18.2-40.6-17.4c-20.9,1-38.2,14.5-45.1,33c-5.5-6.5-13.7-10.5-22.8-10
				c-11.5,0.5-21,7.9-24.9,17.9c-3.3-0.6-6.7-0.9-10.2-0.8c-23.7,1.1-42,21.2-40.9,44.9c1.1,23.7,21.2,42,44.9,40.9
				c7.7-0.4,14.9-2.8,21-6.7c7.9,13.1,22.5,21.6,38.8,20.8c13.4-0.6,25-7.3,32.4-17.3c4.6,5.9,11.9,9.6,20,9.2
				c10-0.5,18.3-7,21.4-15.9c9.7,13.6,25.8,22.1,43.7,21.3c17.9-0.8,33.2-10.9,41.5-25.3c3.6,1.2,7.6,1.9,11.6,1.7
				c17.5-0.8,31-15.6,30.2-33.1C1449.3,333.5,1441.8,323.2,1431.3,318.5z"/>
		</g>
	</g>
</g>
<path class="st3" d="M1533.6,324.6l3.2,6.4c0.2,0.3,0.5,0.6,0.9,0.6l7.1,1c0.9,0.1,1.3,1.3,0.6,2l-5.1,5c-0.3,0.3-0.4,0.6-0.3,1
	l1.2,7.1c0.2,0.9-0.8,1.7-1.7,1.2l-6.3-3.3c-0.3-0.2-0.7-0.2-1.1,0l-6.3,3.3c-0.8,0.4-1.8-0.3-1.7-1.2l1.2-7.1
	c0.1-0.4-0.1-0.8-0.3-1l-5.1-5c-0.7-0.7-0.3-1.8,0.6-2l7.1-1c0.4-0.1,0.7-0.3,0.9-0.6l3.2-6.4
	C1531.9,323.7,1533.2,323.7,1533.6,324.6z"/>
<path class="st3" d="M1234.4,169.2l1.4,2.8c0.1,0.1,0.2,0.3,0.4,0.3l3.1,0.5c0.4,0.1,0.6,0.6,0.3,0.9l-2.3,2.2
	c-0.1,0.1-0.2,0.3-0.1,0.4l0.5,3.1c0.1,0.4-0.4,0.7-0.7,0.5l-2.8-1.5c-0.1-0.1-0.3-0.1-0.5,0l-2.8,1.5c-0.4,0.2-0.8-0.1-0.7-0.5
	l0.5-3.1c0-0.2,0-0.3-0.1-0.4l-2.3-2.2c-0.3-0.3-0.1-0.8,0.3-0.9l3.1-0.5c0.2,0,0.3-0.1,0.4-0.3l1.4-2.8
	C1233.7,168.9,1234.2,168.9,1234.4,169.2z"/>
<path class="st3" d="M1040.3,54.2l1.3,2.6c0.1,0.1,0.2,0.2,0.3,0.3l2.8,0.4c0.4,0.1,0.5,0.5,0.3,0.8l-2.1,2
	c-0.1,0.1-0.2,0.3-0.1,0.4l0.5,2.8c0.1,0.4-0.3,0.7-0.7,0.5l-2.5-1.3c-0.1-0.1-0.3-0.1-0.4,0l-2.5,1.3c-0.3,0.2-0.7-0.1-0.7-0.5
	l0.5-2.8c0-0.1,0-0.3-0.1-0.4l-2.1-2c-0.3-0.3-0.1-0.7,0.3-0.8l2.8-0.4c0.2,0,0.3-0.1,0.3-0.3l1.3-2.6
	C1039.7,53.9,1040.1,53.9,1040.3,54.2z"/>
<path class="st3" d="M1021.3,112.3l1.3,2.6c0.1,0.1,0.2,0.2,0.3,0.3l2.8,0.4c0.4,0.1,0.5,0.5,0.3,0.8l-2.1,2
	c-0.1,0.1-0.2,0.3-0.1,0.4l0.5,2.8c0.1,0.4-0.3,0.7-0.7,0.5l-2.5-1.3c-0.1-0.1-0.3-0.1-0.4,0l-2.5,1.3c-0.3,0.2-0.7-0.1-0.7-0.5
	l0.5-2.8c0-0.2,0-0.3-0.1-0.4l-2.1-2c-0.3-0.3-0.1-0.7,0.3-0.8l2.8-0.4c0.2,0,0.3-0.1,0.3-0.3l1.3-2.6
	C1020.7,111.9,1021.2,111.9,1021.3,112.3z"/>
<path class="st3" d="M1130,278l0.5,1.1c0,0.1,0.1,0.1,0.1,0.1l1.2,0.2c0.2,0,0.2,0.2,0.1,0.3l-0.9,0.8c0,0-0.1,0.1-0.1,0.2l0.2,1.2
	c0,0.2-0.1,0.3-0.3,0.2l-1.1-0.6c-0.1,0-0.1,0-0.2,0l-1.1,0.6c-0.1,0.1-0.3,0-0.3-0.2l0.2-1.2c0-0.1,0-0.1-0.1-0.2l-0.9-0.8
	c-0.1-0.1-0.1-0.3,0.1-0.3l1.2-0.2c0.1,0,0.1,0,0.1-0.1l0.5-1.1C1129.7,277.9,1129.9,277.9,1130,278z"/>
<path class="st3" d="M1135.2,112.4l1.2,2.5c0.1,0.1,0.2,0.2,0.3,0.2l2.8,0.4c0.4,0.1,0.5,0.5,0.3,0.8l-2,2c-0.1,0.1-0.2,0.3-0.1,0.4
	l0.5,2.8c0.1,0.4-0.3,0.7-0.7,0.5l-2.5-1.3c-0.1-0.1-0.3-0.1-0.4,0l-2.5,1.3c-0.3,0.2-0.7-0.1-0.7-0.5l0.5-2.8c0-0.1,0-0.3-0.1-0.4
	l-2-2c-0.3-0.3-0.1-0.7,0.3-0.8l2.8-0.4c0.1,0,0.3-0.1,0.3-0.2l1.2-2.5C1134.6,112.1,1135.1,112.1,1135.2,112.4z"/>
<path class="st3" d="M1087.3,187.5l2.5,5.1c0.1,0.3,0.4,0.5,0.7,0.5l5.7,0.8c0.8,0.1,1.1,1,0.5,1.6l-4.1,4c-0.2,0.2-0.3,0.5-0.3,0.8
	l1,5.6c0.1,0.8-0.7,1.3-1.3,1l-5.1-2.7c-0.3-0.1-0.6-0.1-0.9,0l-5.1,2.7c-0.7,0.4-1.5-0.2-1.3-1l1-5.6c0.1-0.3,0-0.6-0.3-0.8l-4.1-4
	c-0.5-0.5-0.2-1.5,0.5-1.6l5.7-0.8c0.3,0,0.6-0.2,0.7-0.5l2.5-5.1C1086,186.9,1087,186.9,1087.3,187.5z"/>
<path class="st3" d="M1289.8,29.1l0.8,1.5c0,0.1,0.1,0.1,0.2,0.2l1.7,0.2c0.2,0,0.3,0.3,0.2,0.5l-1.2,1.2c-0.1,0.1-0.1,0.2-0.1,0.2
	l0.3,1.7c0,0.2-0.2,0.4-0.4,0.3l-1.5-0.8c-0.1,0-0.2,0-0.3,0l-1.5,0.8c-0.2,0.1-0.4-0.1-0.4-0.3l0.3-1.7c0-0.1,0-0.2-0.1-0.2
	l-1.2-1.2c-0.2-0.2-0.1-0.4,0.2-0.5l1.7-0.2c0.1,0,0.2-0.1,0.2-0.2l0.8-1.5C1289.4,28.9,1289.7,28.9,1289.8,29.1z"/>
<path class="st3" d="M1221,80.4l2,4.1c0.1,0.2,0.3,0.4,0.6,0.4l4.5,0.7c0.6,0.1,0.8,0.8,0.4,1.3l-3.3,3.2c-0.2,0.2-0.3,0.4-0.2,0.7
	l0.8,4.5c0.1,0.6-0.5,1.1-1.1,0.8l-4.1-2.1c-0.2-0.1-0.5-0.1-0.7,0l-4.1,2.1c-0.5,0.3-1.2-0.2-1.1-0.8l0.8-4.5c0-0.2,0-0.5-0.2-0.7
	l-3.3-3.2c-0.4-0.4-0.2-1.2,0.4-1.3l4.5-0.7c0.2,0,0.4-0.2,0.6-0.4l2-4.1C1219.9,79.8,1220.7,79.8,1221,80.4z"/>
</svg>
