<?xml version="1.0" encoding="utf-8"?>
<!-- Generator: Adobe Illustrator 26.5.0, SVG Export Plug-In . SVG Version: 6.00 Build 0)  -->
<svg version="1.1" id="Calque_1" xmlns="http://www.w3.org/2000/svg" xmlns:xlink="http://www.w3.org/1999/xlink" x="0px" y="0px"
	 viewBox="0 0 1600 500" style="enable-background:new 0 0 1600 500;" xml:space="preserve">
<style type="text/css">
	.st0{fill:none;stroke:#967A4A;stroke-miterlimit:10;stroke-dasharray:2;}
	.st1{fill:#967A4A;}
	.st2{fill:#C9B389;}
	.st3{fill:#E6D7B7;}
	.st4{fill:#F4E9CD;}
	.st5{opacity:0.2;enable-background:new    ;}
	.st6{opacity:0.8;fill:#E6D7B7;enable-background:new    ;}
	.st7{opacity:0.8;fill:none;stroke:#967A4A;stroke-miterlimit:10;stroke-dasharray:2;enable-background:new    ;}
	.st8{fill:#DFD7C3;}
	.st9{fill:none;stroke:#967A4A;stroke-miterlimit:10;}
	.st10{fill:none;stroke:#967A4A;stroke-miterlimit:10;stroke-dasharray:1.989,1.989;}
	.st11{fill:none;stroke:#967A4A;stroke-miterlimit:10;stroke-dasharray:2.021,2.021;}
	.st12{fill:none;stroke:#967A4A;stroke-miterlimit:10;stroke-dasharray:1.9929,1.9929;}
	.st13{fill:none;stroke:#967A4A;stroke-miterlimit:10;stroke-dasharray:2.037,2.037;}
	.st14{fill:none;stroke:#967A4A;stroke-miterlimit:10;stroke-dasharray:2.005,2.005;}
	.st15{fill:none;stroke:#967A4A;stroke-miterlimit:10;stroke-dasharray:1.9886,1.9886;}
	.st16{fill:none;stroke:#967A4A;stroke-miterlimit:10;stroke-dasharray:2.0333,2.0333;}
	.st17{fill:none;stroke:#967A4A;stroke-miterlimit:10;stroke-dasharray:2.014,2.014;}
	.st18{fill:none;stroke:#967A4A;stroke-miterlimit:10;stroke-dasharray:2.0081,2.0081;}
	.st19{opacity:0.35;fill:url(#SVGID_1_);enable-background:new    ;}
	.st20{opacity:0.35;fill:url(#SVGID_00000116933089943901625090000011391584008297047734_);enable-background:new    ;}
	.st21{opacity:0.2;fill:url(#SVGID_00000038401476592531056060000012898270490330459057_);enable-background:new    ;}
	.st22{opacity:0.1;fill:url(#SVGID_00000145743744669666955120000007316020421420534172_);enable-background:new    ;}
	.st23{opacity:0.35;fill:url(#SVGID_00000098915801306542909570000017093518841943441065_);enable-background:new    ;}
	.st24{opacity:0.35;fill:url(#SVGID_00000157266386925703709930000011084989523280960661_);enable-background:new    ;}
	.st25{opacity:0.4;fill:#EEDAAA;enable-background:new    ;}
	.st26{opacity:0.4;fill:url(#SVGID_00000043421318184900440630000017790403590687520938_);enable-background:new    ;}
	.st27{opacity:0.4;fill:url(#SVGID_00000168094304397369886470000015051721849513400466_);enable-background:new    ;}
	.st28{opacity:0.4;fill:url(#SVGID_00000182487217143392852230000013772277244867204509_);enable-background:new    ;}
	.st29{opacity:0.66;enable-background:new    ;}
	.st30{fill:#FFFFFF;}
	.st31{fill:none;stroke:#898989;stroke-width:0.25;stroke-miterlimit:10;}
	.st32{fill:none;stroke:#898989;stroke-width:0.25;stroke-miterlimit:10;stroke-dasharray:1.0236,1.0236;}
	.st33{fill:none;stroke:#898989;stroke-width:0.25;stroke-miterlimit:10;stroke-dasharray:0.9946,0.9946;}
	.st34{opacity:0.3;fill:url(#SVGID_00000141449622550995569390000010698564504196160698_);enable-background:new    ;}
	.st35{fill:#FFFDF8;}
	.st36{opacity:0.3;fill:url(#SVGID_00000026160018783752651370000011166662695382469818_);enable-background:new    ;}
	.st37{opacity:0.3;fill:url(#SVGID_00000019645579242156387830000016460800450327137463_);enable-background:new    ;}
	.st38{opacity:0.3;fill:url(#SVGID_00000097489653458571556850000010566489781037264296_);enable-background:new    ;}
	.st39{opacity:0.9;fill:#FFFFFF;enable-background:new    ;}
	.st40{opacity:0.8;fill:#FFFFFF;enable-background:new    ;}
	.st41{opacity:0.3;fill:url(#SVGID_00000046340182398792125520000011133082519910858129_);enable-background:new    ;}
	.st42{fill:none;stroke:#967A4A;stroke-width:1;stroke-miterlimit:9.9999;stroke-dasharray:2;}
</style>
<line class="st0" x1="1278.5" y1="0" x2="1278.5" y2="71.7"/>
<path class="st0" d="M1279.8,71.7l3.4,6.9c0.1,0.4,0.5,0.6,0.9,0.7l7.6,1.1c1,0.1,1.4,1.4,0.7,2.1l-5.5,5.4
	c-0.3,0.3-0.5,0.7-0.4,1.1l1.3,7.6c0.2,1-0.9,1.8-1.8,1.3l-6.8-3.6c-0.4-0.2-0.8-0.2-1.2,0l-6.8,3.6c-0.9,0.5-2-0.3-1.8-1.3l1.3-7.6
	c0-0.4-0.1-0.8-0.4-1.1l-5.5-5.4c-0.7-0.7-0.3-2,0.7-2.1l7.6-1.1c0.4-0.1,0.7-0.3,0.9-0.7l3.4-6.9
	C1277.8,70.7,1279.1,70.7,1279.8,71.7z"/>
<line class="st0" x1="176.7" y1="0" x2="176.7" y2="223.3"/>
<line class="st0" x1="79" y1="0" x2="79" y2="123.7"/>
<path class="st0" d="M82.1,125.6l9.8,19.8c0.5,1,1.5,1.7,2.7,1.9l21.8,3.2c2.9,0.5,4.1,4,2,6.1L102.6,172c-0.8,0.8-1.2,1.9-1,3.1
	l3.7,21.8c0.4,2.9-2.6,5.1-5.2,3.7l-19.5-10.3c-1-0.5-2.3-0.5-3.3,0l-19.5,10.3c-2.7,1.4-5.7-0.8-5.2-3.7l3.7-21.8
	c0.2-1.1-0.2-2.3-1-3.1l-15.8-15.4c-2.1-2.1-0.9-5.7,2-6.1l21.8-3.2c1.2-0.1,2.2-0.9,2.7-1.9l9.8-19.8C77.1,123,80.9,123,82.1,125.6
	z"/>
<image style="overflow:visible;enable-background:new    ;" width="1610" height="467" xlink:href="CA815A63.jpg"  transform="matrix(0.1348 0 0 0.4275 913.4934 -497.7739)">
</image>
<polygon class="st1" points="1363.2,768.2 1334.5,809.7 1391.9,809.7 "/>
<polygon class="st2" points="1363.2,760.7 1339.5,794.9 1386.8,794.9 "/>
<polygon class="st3" points="1363.2,755.3 1343.5,783.8 1382.9,783.8 "/>
<polygon class="st4" points="1363.2,750.5 1347.8,772.7 1378.5,772.7 "/>
<rect x="1351.3" y="809.7" class="st4" width="23.8" height="10.4"/>
<polygon class="st5" points="1375.1,809.7 1351.3,812.3 1351.3,809.7 "/>
<polygon class="st5" points="1375.2,772.7 1349,775.8 1351.2,772.7 "/>
<polygon class="st5" points="1379.2,783.8 1345.1,786.9 1347.2,783.8 "/>
<polygon class="st5" points="1381.6,794.9 1342.6,798 1344.7,794.9 "/>
<polygon class="st1" points="1588.2,743.8 1546,804.8 1630.3,804.8 "/>
<polygon class="st2" points="1588.2,732.9 1553.4,783.1 1622.9,783.1 "/>
<polygon class="st3" points="1588.2,725 1559.2,766.8 1617.1,766.8 "/>
<polygon class="st4" points="1588.2,717.9 1565.6,750.5 1610.7,750.5 "/>
<rect x="1570.7" y="804.8" class="st4" width="35" height="15.3"/>
<polygon class="st5" points="1605.7,804.8 1570.7,808.6 1570.7,804.8 "/>
<polygon class="st5" points="1605.8,750.5 1567.4,755 1570.5,750.5 "/>
<polygon class="st5" points="1611.6,766.8 1561.6,771.3 1564.7,766.8 "/>
<polygon class="st5" points="1615.3,783.1 1557.9,787.6 1561,783.1 "/>
<polygon class="st1" points="1467.4,701.8 1402,796.4 1532.8,796.4 "/>
<polygon class="st2" points="1467.4,684.8 1413.5,762.6 1521.2,762.6 "/>
<polygon class="st3" points="1467.4,672.6 1422.5,737.4 1512.3,737.4 "/>
<polygon class="st4" points="1467.4,661.6 1432.4,712.1 1502.4,712.1 "/>
<rect x="1440.3" y="796.4" class="st4" width="54.3" height="23.7"/>
<polygon class="st5" points="1494.5,796.4 1440.2,802.3 1440.2,796.4 "/>
<polygon class="st5" points="1494.8,712.1 1435.2,719.2 1440,712.1 "/>
<polygon class="st5" points="1503.8,737.4 1426.1,744.5 1431,737.4 "/>
<polygon class="st5" points="1509.5,762.6 1420.5,769.7 1425.3,762.6 "/>
<g>
	<g>
		<g>
			<path class="st3" d="M220.3,733.5c0.2-10.5-7.4-19.9-18.1-21.5c-3.5-0.5-6.8-0.2-9.9,0.8c-1.1-4.4-4.9-8.1-9.8-8.9
				c-3.2-0.5-6.2,0.4-8.6,2c-3.7-6.4-10.2-11.3-18.1-12.5c-10.2-1.6-20,3.4-25.3,11.7c-2.1-3.7-5.7-6.4-10.1-7.1
				c-5.7-0.9-11,1.8-13.9,6.3c-1.6-0.7-3.2-1.1-4.9-1.4c-11.6-1.7-22.5,6.3-24.4,17.9c-1.7,11.6,6.3,22.5,17.9,24.3
				c3.8,0.5,7.5,0.1,10.9-1.2c2.5,7.2,8.8,12.7,16.9,13.9c6.6,1,13-1.1,17.5-5.3c1.7,3.4,4.9,5.9,8.9,6.4c4.9,0.8,9.6-1.6,12-5.7
				c3.4,7.5,10.4,13.3,19.2,14.6c8.9,1.3,17.3-2.1,22.7-8.3c1.7,1,3.5,1.6,5.5,1.9c8.7,1.3,16.6-4.6,17.9-13.1
				C227.6,742.6,225,736.8,220.3,733.5z"/>
		</g>
	</g>
</g>
<g>
	<g>
		<g>
			<path class="st3" d="M340.9,760.8c-1.5-6.7-7.7-11.4-14.7-10.8c-2.3,0.2-4.3,1-6.2,2c-1.4-2.6-4.3-4.4-7.5-4.1
				c-2.1,0.2-3.8,1.2-5.1,2.6c-3.3-3.5-8.1-5.6-13.4-5.1c-6.7,0.6-12.2,5.2-14.1,11.2c-1.8-2-4.5-3.2-7.5-3
				c-3.7,0.3-6.6,2.8-7.8,6.1c-1.1-0.2-2.2-0.2-3.3-0.1c-7.6,0.7-13.3,7.3-12.6,15c0.7,7.6,7.4,13.3,15,12.6
				c2.5-0.2,4.8-1.1,6.7-2.4c2.7,4.1,7.5,6.7,12.8,6.2c4.3-0.4,8-2.7,10.2-6c1.5,1.8,4,3,6.6,2.7c3.2-0.3,5.8-2.5,6.7-5.4
				c3.3,4.2,8.6,6.8,14.4,6.3s10.6-3.9,13.1-8.7c1.2,0.4,2.5,0.5,3.8,0.4c5.6-0.5,9.8-5.5,9.3-11.1
				C346.9,765.5,344.3,762.2,340.9,760.8z"/>
		</g>
	</g>
</g>
<g>
	<path class="st6" d="M377.5,804l137.9-17.7l45.3,56.2l96.5,109.4l-27.6,31l86.2,121.7L740,859.7l187.7-143.8c0,0-78.3-9.9-133-16.7
		c20.2-22.7,78.8-88.2,78.8-88.2l-159.6,19.7L590.8,756.2L477,737.5L377.5,804z"/>
	<polygon class="st6" points="740.5,860.2 658.3,952.3 561.7,842.9 	"/>
	<path class="st6" d="M653.3,767.1c44.8-37.4,89.2-73.9,90.6-73.9c1,0,22.7,3,51.2,6.4c54.7,6.9,133,16.7,133,16.7L740.5,860.2
		L561.7,843C561.7,842.9,607.5,804.5,653.3,767.1z"/>
	<path class="st6" d="M590.8,756.2l62.1,10.3c-45.3,37.9-91.1,76.4-91.1,76.4l-45.3-56.2L477,737.5L590.8,756.2z"/>
</g>
<g>
	<path class="st7" d="M200.4,217.1l-22.1,3.6l-23.9-24.4l-31-3.8c0,0,11.4,12.7,15.3,17.1c-10.6,1.4-25.8,3.3-25.8,3.3l36.5,27.9
		l4.7,47.5l16.7-23.6l-5.4-6l18.8-21.2l8.8-10.9l26.8,3.4L200.4,217.1z"/>
	<polygon class="st7" points="184,237.5 165.3,258.8 149.3,240.9 	"/>
	<path class="st7" d="M184.1,237.5l-34.7,3.3l-36.5-27.9c0,0,15.2-2,25.8-3.3c5.5-0.6,9.7-1.2,9.9-1.2c0.3,0,8.9,7.1,17.6,14.4
		C175.1,230.1,184,237.5,184.1,237.5z"/>
	<path class="st7" d="M200.5,217l-7.7,9.6l-8.8,10.9c0,0-8.9-7.4-17.7-14.8l12.1-2L200.5,217z"/>
</g>
<g>
	<path class="st2" d="M402.8,1083.2c-12.6,9-27,16-42.9,20.2c-70.7,18.9-143.4-23.1-162.2-93.8c-18.9-70.7,23.1-143.4,93.8-162.2
		c15.9-4.2,31.8-5.4,47.3-3.9c-43.6,31.2-65.6,87.2-50.9,142C302.5,1040.3,349.5,1077.9,402.8,1083.2z"/>
</g>
<g>
	<g>
		<g>
			<g>
				<path class="st8" d="M975-769c-6.6-36.5-39.3-63.3-77.3-61.5c-12.2,0.5-23.8,4.2-33.7,9.8c-7-14.7-22.4-24.5-39.7-23.6
					c-11.2,0.5-21.2,5.4-28.3,12.9c-17.1-19.8-42.8-31.8-71-30.4c-36.5,1.7-66.8,25.3-78.8,57.7c-9.6-11.4-23.9-18.4-39.9-17.5
					c-20.1,0.9-36.7,13.8-43.5,31.3c-5.8-1-11.7-1.6-17.8-1.4c-41.4,1.9-73.4,37.1-71.5,78.5s37.1,73.4,78.5,71.5
					c13.5-0.7,26-4.9,36.7-11.7c13.8,22.9,39.3,37.8,67.8,36.4c23.4-1,43.7-12.8,56.6-30.2c8,10.3,20.8,16.8,35,16.1
					c17.5-0.9,32-12.2,37.4-27.8c17,23.8,45.1,38.6,76.4,37.2c31.3-1.4,58-19.1,72.5-44.2c6.3,2.1,13.3,3.3,20.3,3
					c30.6-1.4,54.2-27.3,52.8-57.9C1006.5-742.8,993.4-760.8,975-769z"/>
				<g>
					<path class="st9" d="M975.9-768.6c-0.3-0.1-0.6-0.3-0.9-0.4c-0.1-0.3-0.1-0.7-0.2-1"/>
					<path class="st10" d="M974.4-771.9c-7.8-35-39.8-60.3-76.7-58.6c-11.5,0.5-22.4,3.8-32,8.8"/>
					<path class="st9" d="M864.9-821.2c-0.3,0.2-0.6,0.3-0.9,0.5c-0.1-0.3-0.3-0.6-0.4-0.9"/>
					<path class="st11" d="M862.6-823.4c-7.5-13.2-22.1-21.7-38.3-20.9c-10.5,0.5-19.9,4.8-26.9,11.5"/>
					<path class="st9" d="M796.7-832.1c-0.2,0.2-0.5,0.5-0.7,0.7c-0.2-0.3-0.4-0.5-0.7-0.8"/>
					<path class="st12" d="M794-833.6c-17.1-18.4-41.9-29.5-69-28.2c-35.8,1.7-65.6,24.4-78.1,55.8"/>
					<path class="st9" d="M646.6-805.1c-0.1,0.3-0.2,0.6-0.4,0.9c-0.2-0.3-0.4-0.5-0.7-0.8"/>
					<path class="st13" d="M644.2-806.4c-9.5-10-23-16-37.8-15.2c-19.4,0.8-35.5,12.9-42.8,29.4"/>
					<path class="st9" d="M563.2-791.3c-0.1,0.3-0.3,0.6-0.4,0.9c-0.3-0.1-0.7-0.1-1-0.2"/>
					<path class="st14" d="M559.9-790.8c-4.8-0.7-9.8-1.1-14.9-0.9c-41.4,1.9-73.4,37.1-71.5,78.5s37.1,73.4,78.5,71.5
						c12.8-0.7,24.7-4.5,35-10.7"/>
					<path class="st9" d="M587.9-652.9c0.3-0.2,0.6-0.4,0.8-0.5c0.2,0.3,0.3,0.6,0.5,0.9"/>
					<path class="st15" d="M590.3-651c14.1,21.5,38.8,35.2,66.2,33.8c22.7-1,42.5-12.1,55.4-28.7"/>
					<path class="st9" d="M712.6-646.6c0.2-0.3,0.4-0.5,0.6-0.8c0.2,0.3,0.4,0.5,0.6,0.8"/>
					<path class="st16" d="M715.1-645c8.1,8.9,19.9,14.4,33,13.8c16.8-0.8,30.8-11.3,36.7-25.9"/>
					<path class="st9" d="M785.2-658.1c0.1-0.3,0.2-0.6,0.3-0.9c0.2,0.3,0.4,0.5,0.6,0.8"/>
					<path class="st17" d="M787.3-656.6c17.1,22.4,44.4,36.2,74.6,34.8c30.6-1.4,56.8-18.2,71.5-42.5"/>
					<path class="st9" d="M934-665.2c0.2-0.3,0.3-0.6,0.5-0.9c0.3,0.1,0.6,0.2,1,0.3"/>
					<path class="st18" d="M937.4-665.2c5.5,1.5,11.5,2.4,17.4,2.1c30.6-1.4,54.2-27.3,52.8-57.9c-1-21.1-13.3-38.6-30.7-47.2"/>
				</g>
			</g>
		</g>
	</g>
</g>
<path class="st3" d="M1467-295.3l1.4,2.8c0.1,0.1,0.2,0.3,0.4,0.3l3.1,0.5c0.4,0.1,0.6,0.6,0.3,0.9l-2.3,2.2
	c-0.1,0.1-0.2,0.3-0.1,0.4l0.5,3.1c0.1,0.4-0.4,0.7-0.7,0.5l-2.8-1.5c-0.1-0.1-0.3-0.1-0.5,0l-2.8,1.5c-0.4,0.2-0.8-0.1-0.7-0.5
	l0.5-3.1c0-0.2,0-0.3-0.1-0.4l-2.3-2.2c-0.3-0.3-0.1-0.8,0.3-0.9l3.1-0.5c0.2,0,0.3-0.1,0.4-0.3l1.4-2.8
	C1466.3-295.6,1466.8-295.6,1467-295.3z"/>
<path class="st3" d="M1792.5-259.9l1.3,2.6c0.1,0.1,0.2,0.2,0.3,0.3l2.8,0.4c0.4,0.1,0.5,0.5,0.3,0.8l-2.1,2
	c-0.1,0.1-0.2,0.3-0.1,0.4l0.5,2.8c0.1,0.4-0.3,0.7-0.7,0.5l-2.5-1.3c-0.1-0.1-0.3-0.1-0.4,0l-2.5,1.3c-0.3,0.2-0.7-0.1-0.7-0.5
	l0.5-2.8c0-0.1,0-0.3-0.1-0.4l-2.1-2c-0.3-0.3-0.1-0.7,0.3-0.8l2.8-0.4c0.2,0,0.3-0.1,0.3-0.3l1.3-2.6
	C1791.9-260.2,1792.3-260.2,1792.5-259.9z"/>
<path class="st3" d="M662.4-117.4l1.3,2.6c0,0.2,0.1,0.3,0.3,0.3l2.8,0.4c0.4,0.1,0.6,0.5,0.3,0.8l-2.1,2c-0.1,0.1-0.1,0.2-0.1,0.4
	l0.5,2.8c0,0.4-0.4,0.7-0.7,0.5l-2.5-1.3c-0.1-0.1-0.3-0.1-0.4,0l-2.5,1.3c-0.4,0.2-0.8-0.1-0.7-0.5l0.5-2.8c0.1-0.1,0-0.3-0.1-0.4
	l-2.1-2c-0.2-0.3-0.1-0.7,0.3-0.8l2.8-0.4c0.1-0.1,0.2-0.2,0.3-0.3l1.3-2.6C661.7-117.8,662.2-117.8,662.4-117.4z"/>
<path class="st4" d="M1362.6-186.5l0.5,1.1c0,0.1,0.1,0.1,0.1,0.1l1.2,0.2c0.2,0,0.2,0.2,0.1,0.3l-0.9,0.8c0,0-0.1,0.1-0.1,0.2
	l0.2,1.2c0,0.2-0.1,0.3-0.3,0.2l-1.1-0.6c-0.1,0-0.1,0-0.2,0l-1.1,0.6c-0.1,0.1-0.3,0-0.3-0.2l0.2-1.2c0-0.1,0-0.1-0.1-0.2l-0.9-0.8
	c-0.1-0.1-0.1-0.3,0.1-0.3l1.2-0.2c0.1,0,0.1,0,0.1-0.1l0.5-1.1C1362.3-186.6,1362.5-186.6,1362.6-186.5z"/>
<path class="st3" d="M1338.9-240.5l1.2,2.5c0.1,0.1,0.2,0.2,0.3,0.2l2.8,0.4c0.4,0.1,0.5,0.5,0.3,0.8l-2,2c-0.1,0.1-0.2,0.3-0.1,0.4
	l0.5,2.8c0.1,0.4-0.3,0.7-0.7,0.5l-2.5-1.3c-0.1-0.1-0.3-0.1-0.4,0l-2.5,1.3c-0.3,0.2-0.7-0.1-0.7-0.5l0.5-2.8c0-0.1,0-0.3-0.1-0.4
	l-2-2c-0.3-0.3-0.1-0.7,0.3-0.8l2.8-0.4c0.1,0,0.3-0.1,0.3-0.2l1.2-2.5C1338.3-240.8,1338.8-240.8,1338.9-240.5z"/>
<path class="st3" d="M1587.9-305.1l2.5,5.1c0.1,0.3,0.4,0.5,0.7,0.5l5.7,0.8c0.8,0.1,1.1,1,0.5,1.6l-4.1,4c-0.2,0.2-0.3,0.5-0.3,0.8
	l1,5.6c0.1,0.8-0.7,1.3-1.3,1l-5.1-2.7c-0.3-0.1-0.6-0.1-0.9,0l-5.1,2.7c-0.7,0.4-1.5-0.2-1.3-1l1-5.6c0.1-0.3,0-0.6-0.3-0.8l-4.1-4
	c-0.5-0.5-0.2-1.5,0.5-1.6l5.7-0.8c0.3,0,0.6-0.2,0.7-0.5l2.5-5.1C1586.6-305.7,1587.6-305.7,1587.9-305.1z"/>
<path class="st3" d="M1622.2-242l1.6,3.3c0.1,0.2,0.3,0.3,0.5,0.3l3.7,0.5c0.5,0.1,0.7,0.6,0.3,1l-2.7,2.6c-0.1,0.1-0.2,0.3-0.2,0.5
	l0.6,3.6c0.1,0.5-0.5,0.8-0.8,0.6l-3.3-1.7c-0.2-0.1-0.4-0.1-0.6,0l-3.3,1.7c-0.5,0.3-1-0.1-0.8-0.6l0.6-3.6c0.1-0.2,0-0.4-0.2-0.5
	l-2.7-2.6c-0.3-0.3-0.1-1,0.3-1l3.7-0.5c0.2,0,0.4-0.1,0.5-0.3l1.6-3.3C1621.3-242.4,1622-242.4,1622.2-242z"/>
<path class="st3" d="M1522.4-435.4l0.8,1.5c0,0.1,0.1,0.1,0.2,0.2l1.7,0.2c0.2,0,0.3,0.3,0.2,0.5l-1.2,1.2c-0.1,0.1-0.1,0.2-0.1,0.2
	l0.3,1.7c0,0.2-0.2,0.4-0.4,0.3l-1.5-0.8c-0.1,0-0.2,0-0.3,0l-1.5,0.8c-0.2,0.1-0.4-0.1-0.4-0.3l0.3-1.7c0-0.1,0-0.2-0.1-0.2
	l-1.2-1.2c-0.2-0.2-0.1-0.4,0.2-0.5l1.7-0.2c0.1,0,0.2-0.1,0.2-0.2l0.8-1.5C1522-435.6,1522.3-435.6,1522.4-435.4z"/>
<path class="st3" d="M1453.6-413.2l2,4.1c0.1,0.2,0.3,0.4,0.6,0.4l4.5,0.7c0.6,0.1,0.8,0.8,0.4,1.3l-3.3,3.2
	c-0.2,0.2-0.3,0.4-0.2,0.7l0.8,4.5c0.1,0.6-0.5,1.1-1.1,0.8l-4.1-2.1c-0.2-0.1-0.5-0.1-0.7,0l-4.1,2.1c-0.5,0.3-1.2-0.2-1.1-0.8
	l0.8-4.5c0-0.2,0-0.5-0.2-0.7l-3.3-3.2c-0.4-0.4-0.2-1.2,0.4-1.3l4.5-0.7c0.2,0,0.4-0.2,0.6-0.4l2-4.1
	C1452.5-413.8,1453.3-413.8,1453.6-413.2z"/>
<g>
	
		<radialGradient id="SVGID_1_" cx="2086.5967" cy="29.4967" r="33.189" gradientTransform="matrix(0.7071 -0.7071 -0.7071 -0.7071 211.8247 1121.3895)" gradientUnits="userSpaceOnUse">
		<stop  offset="0" style="stop-color:#BAA072"/>
		<stop  offset="0.2647" style="stop-color:#BDA476;stop-opacity:0.8941"/>
		<stop  offset="0.5258" style="stop-color:#C8B081;stop-opacity:0.7897"/>
		<stop  offset="0.7847" style="stop-color:#D9C494;stop-opacity:0.6861"/>
		<stop  offset="1" style="stop-color:#EDDAAA;stop-opacity:0.6"/>
	</radialGradient>
	<polygon class="st19" points="1713.4,-374.9 1666.4,-327.9 1619.4,-374.9 1666.4,-421.8 	"/>
	
		<radialGradient id="SVGID_00000065770421633854926280000003084045029241107351_" cx="2086.5967" cy="29.4967" r="33.189" gradientTransform="matrix(0.7071 -0.7071 -0.7071 -0.7071 211.8247 1121.3895)" gradientUnits="userSpaceOnUse">
		<stop  offset="0" style="stop-color:#BAA072"/>
		<stop  offset="0.2647" style="stop-color:#BDA476;stop-opacity:0.8941"/>
		<stop  offset="0.5258" style="stop-color:#C8B081;stop-opacity:0.7897"/>
		<stop  offset="0.7847" style="stop-color:#D9C494;stop-opacity:0.6861"/>
		<stop  offset="1" style="stop-color:#EDDAAA;stop-opacity:0.6"/>
	</radialGradient>
	
		<polygon style="opacity:0.35;fill:url(#SVGID_00000065770421633854926280000003084045029241107351_);enable-background:new    ;" points="
		1713.4,-374.9 1666.4,-327.9 1619.4,-374.9 1666.4,-421.8 	"/>
	<g>
		<g>
			
				<linearGradient id="SVGID_00000074444299898064199230000002361414163700129665_" gradientUnits="userSpaceOnUse" x1="1666.45" y1="875.9376" x2="1666.45" y2="898.0203" gradientTransform="matrix(1 0 0 -1 0 500)">
				<stop  offset="0" style="stop-color:#FFFFFF;stop-opacity:0.6"/>
				<stop  offset="8.574789e-02" style="stop-color:#F7F7F7;stop-opacity:0.6343"/>
				<stop  offset="0.2185" style="stop-color:#E1E1E1;stop-opacity:0.6874"/>
				<stop  offset="0.3815" style="stop-color:#BEBEBE;stop-opacity:0.7526"/>
				<stop  offset="0.5686" style="stop-color:#8C8C8C;stop-opacity:0.8274"/>
				<stop  offset="0.7761" style="stop-color:#4D4D4D;stop-opacity:0.9104"/>
				<stop  offset="0.9978" style="stop-color:#010101;stop-opacity:0.9991"/>
				<stop  offset="1" style="stop-color:#000000"/>
			</linearGradient>
			
				<polygon style="opacity:0.2;fill:url(#SVGID_00000074444299898064199230000002361414163700129665_);enable-background:new    ;" points="
				1666.4,-419.8 1621.7,-375.1 1711.2,-375.1 			"/>
			
				<linearGradient id="SVGID_00000078742376364002448000000006790528018794680228_" gradientUnits="userSpaceOnUse" x1="210.885" y1="-605.4438" x2="210.885" y2="-583.3611" gradientTransform="matrix(-1 0 0 1 1877.335 231.2692)">
				<stop  offset="0" style="stop-color:#000000"/>
				<stop  offset="7.380247e-03" style="stop-color:#090909;stop-opacity:0.997"/>
				<stop  offset="4.767627e-02" style="stop-color:#373737;stop-opacity:0.9809"/>
				<stop  offset="9.308982e-02" style="stop-color:#626262;stop-opacity:0.9628"/>
				<stop  offset="0.1419" style="stop-color:#888888;stop-opacity:0.9432"/>
				<stop  offset="0.195" style="stop-color:#A8A8A8;stop-opacity:0.922"/>
				<stop  offset="0.2537" style="stop-color:#C4C4C4;stop-opacity:0.8985"/>
				<stop  offset="0.32" style="stop-color:#DADADA;stop-opacity:0.872"/>
				<stop  offset="0.3974" style="stop-color:#EBEBEB;stop-opacity:0.841"/>
				<stop  offset="0.4931" style="stop-color:#F6F6F6;stop-opacity:0.8028"/>
				<stop  offset="0.6274" style="stop-color:#FDFDFD;stop-opacity:0.7491"/>
				<stop  offset="1" style="stop-color:#FFFFFF;stop-opacity:0.6"/>
			</linearGradient>
			
				<polygon style="opacity:0.1;fill:url(#SVGID_00000078742376364002448000000006790528018794680228_);enable-background:new    ;" points="
				1666.4,-330.3 1711.2,-375.1 1621.7,-375.1 			"/>
		</g>
		
			<radialGradient id="SVGID_00000133522147825963523230000016069357039983676847_" cx="2086.738" cy="29.2665" r="28.5344" gradientTransform="matrix(0.7071 -0.7071 -0.7086 -0.7086 211.6558 1121.2206)" gradientUnits="userSpaceOnUse">
			<stop  offset="0" style="stop-color:#BAA072"/>
			<stop  offset="0.2647" style="stop-color:#BDA476;stop-opacity:0.8941"/>
			<stop  offset="0.5258" style="stop-color:#C8B081;stop-opacity:0.7897"/>
			<stop  offset="0.7847" style="stop-color:#D9C494;stop-opacity:0.6861"/>
			<stop  offset="1" style="stop-color:#EDDAAA;stop-opacity:0.6"/>
		</radialGradient>
		
			<polygon style="opacity:0.35;fill:url(#SVGID_00000133522147825963523230000016069357039983676847_);enable-background:new    ;" points="
			1706.8,-375 1666.5,-334.6 1626,-375.1 1666.4,-415.5 		"/>
	</g>
	
		<radialGradient id="SVGID_00000147936011172159550580000008134313177618174395_" cx="2086.738" cy="29.6381" r="33.1832" gradientTransform="matrix(0.7071 -0.7071 -0.7071 -0.7071 211.8247 1121.3895)" gradientUnits="userSpaceOnUse">
		<stop  offset="0" style="stop-color:#BAA072"/>
		<stop  offset="0.2647" style="stop-color:#BDA476;stop-opacity:0.8941"/>
		<stop  offset="0.5258" style="stop-color:#C8B081;stop-opacity:0.7897"/>
		<stop  offset="0.7847" style="stop-color:#D9C494;stop-opacity:0.6861"/>
		<stop  offset="1" style="stop-color:#EDDAAA;stop-opacity:0.6"/>
	</radialGradient>
	
		<polygon style="opacity:0.35;fill:url(#SVGID_00000147936011172159550580000008134313177618174395_);enable-background:new    ;" points="
		1713.4,-375.1 1666.4,-328.1 1619.4,-375.1 1666.4,-422 	"/>
	<g>
		<path class="st25" d="M1713.7-390.7l-2.4,0.4l-2.6-2.7l-3.4-0.4c0,0,1.3,1.4,1.7,1.9c-1.2,0.1-2.8,0.4-2.8,0.4l4,3.1l0.5,5.2
			l1.8-2.6l-0.6-0.7l2.1-2.3l1-1.2l3,0.4L1713.7-390.7z"/>
		
			<linearGradient id="SVGID_00000014632369485448486920000004536407433453831359_" gradientUnits="userSpaceOnUse" x1="1783.141" y1="814.7975" x2="1786.9812" y2="814.7975" gradientTransform="matrix(0.9953 -9.729397e-02 -9.729397e-02 -0.9953 12.7404 597.4227)">
			<stop  offset="0" style="stop-color:#FEFDED"/>
			<stop  offset="1" style="stop-color:#EDDAAA"/>
		</linearGradient>
		
			<polygon style="opacity:0.4;fill:url(#SVGID_00000014632369485448486920000004536407433453831359_);enable-background:new    ;" points="
			1711.9,-388.4 1709.8,-386.1 1708,-388.1 		"/>
		
			<linearGradient id="SVGID_00000145052197372538898570000017223356300265579181_" gradientUnits="userSpaceOnUse" x1="1779.4529" y1="817.5792" x2="1786.9812" y2="817.5792" gradientTransform="matrix(0.9953 -9.729397e-02 -9.729397e-02 -0.9953 12.7404 597.4227)">
			<stop  offset="0" style="stop-color:#FEFDED"/>
			<stop  offset="1" style="stop-color:#EDDAAA"/>
		</linearGradient>
		<path style="opacity:0.4;fill:url(#SVGID_00000145052197372538898570000017223356300265579181_);enable-background:new    ;" d="
			M1711.9-388.4l-3.8,0.4l-4-3.1c0,0,1.7-0.2,2.8-0.4c0.6-0.1,1.1-0.1,1.1-0.1s1,0.8,1.9,1.6
			C1710.9-389.2,1711.9-388.4,1711.9-388.4z"/>
		
			<linearGradient id="SVGID_00000029041360857874816430000010964243322529670830_" gradientUnits="userSpaceOnUse" x1="1785.1973" y1="816.8563" x2="1789.0035" y2="816.8563" gradientTransform="matrix(0.9953 -9.729397e-02 -9.729397e-02 -0.9953 12.7404 597.4227)">
			<stop  offset="0" style="stop-color:#FEFDED"/>
			<stop  offset="1" style="stop-color:#EDDAAA"/>
		</linearGradient>
		<path style="opacity:0.4;fill:url(#SVGID_00000029041360857874816430000010964243322529670830_);enable-background:new    ;" d="
			M1713.7-390.7l-0.8,1.1l-1,1.2c0,0-1-0.8-2-1.6l1.3-0.2L1713.7-390.7z"/>
	</g>
	<g>
		<path class="st29" d="M1626.9-379.5v-9.5h4.6c1.2,0,2.1,0.2,2.7,0.6s0.9,1.1,0.9,1.9c0,0.5-0.1,1-0.3,1.3c-0.2,0.4-0.5,0.7-1,0.9
			c-0.4,0.2-1,0.4-1.6,0.5l0,0h0.1c0.3,0.1,0.5,0.2,0.7,0.3c0.2,0.1,0.4,0.3,0.6,0.6l2.2,3.2h-0.9l-2-3c-0.2-0.3-0.4-0.5-0.6-0.7
			s-0.4-0.3-0.7-0.3c-0.3-0.1-0.6-0.1-1.1-0.1h-3v4.1h-0.6V-379.5z M1627.7-384.3h4c1,0,1.7-0.2,2.2-0.5c0.4-0.3,0.6-0.8,0.6-1.6
			c0-0.7-0.2-1.2-0.7-1.5s-1.2-0.4-2.2-0.4h-3.9V-384.3z"/>
		<path class="st29" d="M1638.8-379.5v-9.5h7.4v0.7h-6.6v3.6h6.1v0.7h-6.1v3.7h6.6v0.7L1638.8-379.5L1638.8-379.5z"/>
		<path class="st29" d="M1652.7-379.5l-5-9.5h0.8l4.5,8.5h0.1l4.6-8.5h0.8l-5,9.5H1652.7z"/>
		<path class="st29" d="M1660.5-379.5v-9.5h7.4v0.7h-6.6v3.6h6.1v0.7h-6.1v3.7h6.6v0.7L1660.5-379.5L1660.5-379.5z"/>
		<path class="st29" d="M1671.1-379.5v-9.5h4.6c1.2,0,2.1,0.2,2.7,0.6s0.9,1.1,0.9,1.9c0,0.5-0.1,1-0.3,1.3c-0.2,0.4-0.5,0.7-1,0.9
			c-0.4,0.2-1,0.4-1.6,0.5l0,0h0.1c0.3,0.1,0.5,0.2,0.7,0.3c0.2,0.1,0.4,0.3,0.6,0.6l2.2,3.2h-0.9l-2-3c-0.2-0.3-0.4-0.5-0.6-0.7
			s-0.4-0.3-0.7-0.3c-0.3-0.1-0.6-0.1-1.1-0.1h-3v4.1h-0.6V-379.5z M1671.9-384.3h4c1,0,1.7-0.2,2.2-0.5c0.4-0.3,0.6-0.8,0.6-1.6
			c0-0.7-0.2-1.2-0.7-1.5s-1.2-0.4-2.2-0.4h-3.9V-384.3z"/>
		<path class="st29" d="M1683-379.5v-9.5h0.8v9.5H1683z"/>
		<path class="st29" d="M1687.6-379.5v-9.5h7.4v0.7h-6.6v3.6h6.1v0.7h-6.1v3.7h6.6v0.7L1687.6-379.5L1687.6-379.5z"/>
		<path class="st29" d="M1701.9-379.4c-0.6,0-1.2,0-1.8-0.1s-1.1-0.2-1.6-0.4c-0.5-0.2-0.9-0.4-1.2-0.7l0.4-0.6
			c0.4,0.3,0.8,0.6,1.3,0.7c0.4,0.2,0.9,0.3,1.4,0.4s1,0.1,1.5,0.1c1,0,1.8-0.2,2.4-0.5s0.9-0.8,0.9-1.4c0-0.4-0.1-0.7-0.3-1
			c-0.2-0.2-0.5-0.4-0.9-0.5s-0.8-0.2-1.4-0.3l-2.3-0.3c-1-0.2-1.8-0.4-2.2-0.8c-0.4-0.4-0.6-0.9-0.6-1.6c0-0.5,0.2-1,0.5-1.4
			c0.4-0.4,0.9-0.7,1.5-0.9c0.6-0.2,1.4-0.3,2.2-0.3c0.6,0,1.1,0,1.6,0.1s0.9,0.2,1.3,0.4c0.4,0.2,0.7,0.4,1.1,0.7l-0.4,0.6
			c-0.5-0.5-1-0.8-1.6-1s-1.2-0.3-1.9-0.3c-0.7,0-1.3,0.1-1.8,0.2s-1,0.3-1.3,0.6c-0.3,0.3-0.5,0.6-0.5,1.1s0.2,0.9,0.5,1.1
			s0.9,0.4,1.7,0.6l2.2,0.3c1.1,0.1,1.9,0.4,2.4,0.8s0.8,0.9,0.8,1.6c0,0.5-0.2,1-0.5,1.4s-0.8,0.7-1.4,0.9
			C1703.5-379.5,1702.8-379.4,1701.9-379.4z"/>
		<g>
			<path class="st30" d="M1665.3-373.8c-0.3,0-0.5-0.1-0.7-0.2s-0.3-0.3-0.4-0.5s-0.2-0.4-0.2-0.7c0-0.3,0.1-0.5,0.2-0.7
				s0.2-0.4,0.4-0.5c0.2-0.1,0.4-0.2,0.6-0.2s0.4,0.1,0.6,0.2s0.3,0.2,0.4,0.4c0.1,0.2,0.1,0.4,0.1,0.7v0.1h-2.1v-0.2h2l-0.1,0.1
				c0-0.3-0.1-0.6-0.2-0.8c-0.1-0.2-0.4-0.3-0.6-0.3s-0.4,0-0.5,0.1s-0.3,0.2-0.3,0.4c-0.1,0.2-0.1,0.4-0.1,0.6l0,0
				c0,0.2,0,0.4,0.1,0.6s0.2,0.3,0.3,0.4c0.2,0.1,0.3,0.1,0.5,0.1s0.3,0,0.5-0.1c0.1-0.1,0.3-0.1,0.4-0.3l0.1,0.2
				c-0.1,0.1-0.3,0.2-0.4,0.3C1665.6-373.8,1665.5-373.8,1665.3-373.8z"/>
		</g>
		<g>
			<path class="st30" d="M1667.9-373.8c-0.3,0-0.5-0.1-0.6-0.2c-0.1-0.2-0.2-0.4-0.2-0.7v-1.6h-0.5v-0.2h0.5v-0.8h0.2v0.8h0.9v0.2
				h-0.9v1.5c0,0.2,0,0.4,0.1,0.5s0.2,0.2,0.5,0.2c0.1,0,0.1,0,0.2,0s0.1,0,0.1,0l0.1,0.2c0,0-0.1,0-0.2,0.1
				S1668-373.8,1667.9-373.8z"/>
		</g>
		<path class="st29" d="M1626.8-360.7v-9.7h3.9c0.7,0,1.4,0.1,1.9,0.3c0.5,0.2,0.9,0.5,1.1,1c0.3,0.4,0.4,0.9,0.4,1.6
			c0,0.6-0.1,1.1-0.4,1.6c-0.3,0.4-0.6,0.8-1.1,1s-1.1,0.3-1.9,0.3h-3.2v4.1h-0.7V-360.7z M1627.5-365.4h3.2c0.9,0,1.6-0.2,2-0.6
			s0.7-0.9,0.7-1.7c0-0.7-0.2-1.3-0.7-1.7c-0.4-0.4-1.1-0.6-2-0.6h-3.2V-365.4z"/>
		<path class="st29" d="M1636.1-360.7v-9.7h6.4v0.6h-5.7v3.9h5.4v0.6h-5.4v4h5.7v0.6H1636.1z"/>
		<path class="st29" d="M1647.2-360.7v-9.1h-4v-0.6h8.7v0.6h-4v9.1H1647.2z"/>
		<path class="st29" d="M1653.4-360.7v-9.7h0.7v9.7H1653.4z"/>
		<path class="st29" d="M1659.6-360.7v-9.1h-4v-0.6h8.7v0.6h-4v9.1H1659.6z"/>
		<path class="st29" d="M1668.9-360.6c-0.5,0-1,0-1.5-0.1s-0.9-0.2-1.3-0.4c-0.4-0.2-0.7-0.4-1.1-0.7l0.3-0.6
			c0.4,0.3,0.7,0.5,1.1,0.7s0.7,0.3,1.1,0.4s0.9,0.1,1.4,0.1c1,0,1.7-0.2,2.2-0.5s0.8-0.8,0.8-1.4c0-0.4-0.1-0.7-0.2-0.9
			c-0.2-0.2-0.4-0.4-0.8-0.6c-0.3-0.1-0.8-0.3-1.3-0.4l-1.6-0.3c-0.9-0.2-1.6-0.5-2.1-0.9s-0.7-1-0.7-1.7c0-0.6,0.2-1,0.5-1.5
			c0.3-0.4,0.7-0.7,1.3-1c0.5-0.2,1.2-0.3,1.9-0.3c0.5,0,0.9,0,1.4,0.1c0.4,0.1,0.8,0.2,1.2,0.4c0.4,0.2,0.7,0.4,1,0.7l-0.3,0.6
			c-0.5-0.4-0.9-0.8-1.4-0.9c-0.5-0.2-1.1-0.3-1.7-0.3s-1.1,0.1-1.5,0.3c-0.4,0.2-0.8,0.4-1,0.7c-0.2,0.3-0.4,0.7-0.4,1.1
			c0,0.5,0.2,0.9,0.5,1.2c0.3,0.3,0.9,0.5,1.6,0.6l1.6,0.3c1,0.2,1.7,0.5,2.2,0.8c0.5,0.4,0.7,0.9,0.7,1.6c0,0.5-0.2,1-0.4,1.4
			c-0.3,0.4-0.7,0.7-1.3,0.9C1670.3-360.7,1669.7-360.6,1668.9-360.6z"/>
		<path class="st29" d="M1678.4-360.7v-9.7h3.9c0.7,0,1.4,0.1,1.9,0.3c0.5,0.2,0.9,0.5,1.1,1c0.3,0.4,0.4,0.9,0.4,1.6
			c0,0.6-0.1,1.1-0.4,1.6c-0.3,0.4-0.6,0.8-1.1,1s-1.1,0.3-1.9,0.3h-3.2v4.1h-0.7V-360.7z M1679.1-365.4h3.2c0.9,0,1.6-0.2,2-0.6
			s0.7-0.9,0.7-1.7c0-0.7-0.2-1.3-0.7-1.7c-0.4-0.4-1.1-0.6-2-0.6h-3.2V-365.4z"/>
		<path class="st29" d="M1687.6-360.7v-9.7h0.7v9.1h5.6v0.6H1687.6z"/>
		<path class="st29" d="M1695.5-360.7v-9.7h0.7v9.7H1695.5z"/>
		<path class="st29" d="M1702.2-360.6c-0.5,0-1,0-1.5-0.1s-0.9-0.2-1.3-0.4c-0.4-0.2-0.7-0.4-1.1-0.7l0.3-0.6
			c0.4,0.3,0.7,0.5,1.1,0.7c0.3,0.2,0.7,0.3,1.1,0.4s0.9,0.1,1.4,0.1c1,0,1.7-0.2,2.2-0.5s0.8-0.8,0.8-1.4c0-0.4-0.1-0.7-0.2-0.9
			c-0.2-0.2-0.4-0.4-0.8-0.6c-0.3-0.1-0.8-0.3-1.3-0.4l-1.6-0.3c-0.9-0.2-1.6-0.5-2.1-0.9s-0.7-1-0.7-1.7c0-0.6,0.2-1,0.5-1.5
			c0.3-0.4,0.7-0.7,1.3-1c0.5-0.2,1.2-0.3,1.9-0.3c0.5,0,0.9,0,1.4,0.1c0.4,0.1,0.8,0.2,1.2,0.4c0.4,0.2,0.7,0.4,1,0.7l-0.3,0.6
			c-0.5-0.4-0.9-0.8-1.4-0.9c-0.5-0.2-1.1-0.3-1.7-0.3s-1.1,0.1-1.5,0.3c-0.4,0.2-0.8,0.4-1,0.7c-0.2,0.3-0.4,0.7-0.4,1.1
			c0,0.5,0.2,0.9,0.5,1.2c0.3,0.3,0.9,0.5,1.6,0.6l1.6,0.3c1,0.2,1.7,0.5,2.2,0.8c0.5,0.4,0.7,0.9,0.7,1.6c0,0.5-0.2,1-0.4,1.4
			c-0.3,0.4-0.7,0.7-1.3,0.9C1703.7-360.7,1703-360.6,1702.2-360.6z"/>
	</g>
	<g>
		<g>
			<line class="st31" x1="1621.8" y1="-375.1" x2="1622.3" y2="-375.1"/>
			<line class="st32" x1="1623.3" y1="-375.1" x2="1661.7" y2="-375.1"/>
			<line class="st31" x1="1662.2" y1="-375.1" x2="1662.7" y2="-375.1"/>
		</g>
	</g>
	<g>
		<g>
			<line class="st31" x1="1668.9" y1="-375.1" x2="1669.4" y2="-375.1"/>
			<line class="st33" x1="1670.4" y1="-375.1" x2="1709.7" y2="-375.1"/>
			<line class="st31" x1="1710.2" y1="-375.1" x2="1710.7" y2="-375.1"/>
		</g>
	</g>
	<g>
		<g>
			
				<radialGradient id="SVGID_00000118384925338285243610000011391714876221132202_" cx="1311.4368" cy="610.9551" r="5.066" gradientTransform="matrix(1.9378 -0.129 -6.640000e-02 -0.9978 -847.7344 375.7521)" gradientUnits="userSpaceOnUse">
				<stop  offset="0" style="stop-color:#676767"/>
				<stop  offset="7.037508e-02" style="stop-color:#787878"/>
				<stop  offset="0.292" style="stop-color:#A8A8A8"/>
				<stop  offset="0.5027" style="stop-color:#CECECE"/>
				<stop  offset="0.6969" style="stop-color:#E9E9E9"/>
				<stop  offset="0.8687" style="stop-color:#F9F9F9"/>
				<stop  offset="1" style="stop-color:#FFFFFF"/>
			</radialGradient>
			<path style="opacity:0.3;fill:url(#SVGID_00000118384925338285243610000011391714876221132202_);enable-background:new    ;" d="
				M1662.8-403.7c0.2,2.8-4.1,5.3-9.5,5.7c-5.4,0.4-10-1.6-10.1-4.4c-0.2-2.8,4.1-5.3,9.5-5.7
				C1658.1-408.4,1662.6-406.5,1662.8-403.7z"/>
			<g>
				<g>
					<path class="st35" d="M1658-404.8c-0.1-1-1-1.8-2-1.8c-0.3,0-0.7,0.1-0.9,0.2c-0.2-0.4-0.6-0.7-1.1-0.7c-0.3,0-0.6,0.1-0.8,0.3
						c-0.4-0.6-1.1-0.9-1.9-0.9c-1,0-1.9,0.6-2.2,1.5c-0.2-0.3-0.6-0.5-1.1-0.5s-1,0.3-1.2,0.8c-0.2,0-0.3-0.1-0.5-0.1
						c-1.1,0-2.1,0.9-2.1,2s0.9,2,2.1,2c0.4,0,0.7-0.1,1-0.3c0.3,0.6,1,1.1,1.8,1.1c0.6,0,1.2-0.3,1.6-0.8c0.2,0.3,0.5,0.5,0.9,0.5
						c0.5,0,0.9-0.3,1.1-0.7c0.4,0.7,1.2,1.1,2,1.1c0.9,0,1.6-0.4,2-1.1c0.2,0.1,0.4,0.1,0.6,0.1c0.8,0,1.5-0.7,1.5-1.5
						C1658.8-404,1658.4-404.6,1658-404.8z"/>
				</g>
			</g>
		</g>
		<g>
			
				<radialGradient id="SVGID_00000056416153369134413790000014253104211028552630_" cx="1383.4346" cy="466.736" r="3.4701" gradientTransform="matrix(1.8889 -0.4513 -0.2324 -0.9726 -820.398 679.9845)" gradientUnits="userSpaceOnUse">
				<stop  offset="0" style="stop-color:#676767"/>
				<stop  offset="7.037508e-02" style="stop-color:#787878"/>
				<stop  offset="0.292" style="stop-color:#A8A8A8"/>
				<stop  offset="0.5027" style="stop-color:#CECECE"/>
				<stop  offset="0.6969" style="stop-color:#E9E9E9"/>
				<stop  offset="0.8687" style="stop-color:#F9F9F9"/>
				<stop  offset="1" style="stop-color:#FFFFFF"/>
			</radialGradient>
			<path style="opacity:0.3;fill:url(#SVGID_00000056416153369134413790000014253104211028552630_);enable-background:new    ;" d="
				M1690.9-399.9c0.4,1.9-2.1,4.1-5.7,4.9c-3.6,0.9-6.9,0.1-7.4-1.8c-0.4-1.9,2.1-4.1,5.7-4.9
				C1687.1-402.6,1690.4-401.8,1690.9-399.9z"/>
			<g>
				<g>
					<path class="st35" d="M1687.5-400.1c-0.2-0.7-0.9-1.1-1.6-1c-0.2,0-0.4,0.1-0.6,0.3c-0.2-0.3-0.5-0.4-0.8-0.3
						c-0.2,0-0.4,0.1-0.5,0.3c-0.4-0.3-0.9-0.5-1.4-0.4c-0.7,0.1-1.2,0.6-1.3,1.2c-0.2-0.2-0.5-0.3-0.8-0.2
						c-0.4,0.1-0.7,0.3-0.7,0.7c-0.1,0-0.2,0-0.3,0c-0.8,0.1-1.3,0.9-1.2,1.6c0.1,0.8,0.9,1.3,1.6,1.2c0.3,0,0.5-0.1,0.7-0.3
						c0.3,0.4,0.8,0.6,1.3,0.5c0.4-0.1,0.8-0.3,1-0.7c0.2,0.2,0.4,0.3,0.7,0.2c0.3-0.1,0.6-0.3,0.6-0.6c0.4,0.4,0.9,0.6,1.5,0.5
						s1-0.5,1.2-1c0.1,0,0.3,0,0.4,0c0.6-0.1,0.9-0.6,0.8-1.2C1688.1-399.7,1687.8-400,1687.5-400.1z"/>
				</g>
			</g>
		</g>
		<g>
			
				<radialGradient id="SVGID_00000175295055270304429080000009983995377574014127_" cx="1326.8818" cy="596.5219" r="1.3946" gradientTransform="matrix(1.9378 -0.129 -6.640000e-02 -0.9978 -847.7344 375.7521)" gradientUnits="userSpaceOnUse">
				<stop  offset="0" style="stop-color:#676767"/>
				<stop  offset="7.037508e-02" style="stop-color:#787878"/>
				<stop  offset="0.292" style="stop-color:#A8A8A8"/>
				<stop  offset="0.5027" style="stop-color:#CECECE"/>
				<stop  offset="0.6969" style="stop-color:#E9E9E9"/>
				<stop  offset="0.8687" style="stop-color:#F9F9F9"/>
				<stop  offset="1" style="stop-color:#FFFFFF"/>
			</radialGradient>
			<path style="opacity:0.3;fill:url(#SVGID_00000175295055270304429080000009983995377574014127_);enable-background:new    ;" d="
				M1686.6-390.8c0.1,0.8-1.1,1.5-2.6,1.6s-2.7-0.4-2.8-1.2c-0.1-0.8,1.1-1.5,2.6-1.6C1685.3-392.1,1686.5-391.6,1686.6-390.8z"/>
			<g>
				<g>
					<path class="st35" d="M1685.2-391.1c0-0.3-0.3-0.5-0.6-0.5c-0.1,0-0.2,0-0.3,0.1c0-0.1-0.2-0.2-0.3-0.2c-0.1,0-0.2,0-0.2,0.1
						c-0.1-0.2-0.3-0.3-0.5-0.3c-0.3,0-0.5,0.2-0.6,0.4c-0.1-0.1-0.2-0.1-0.3-0.1c-0.2,0-0.3,0.1-0.3,0.2h-0.1
						c-0.3,0-0.6,0.3-0.6,0.6c0,0.3,0.3,0.6,0.6,0.6c0.1,0,0.2,0,0.3-0.1c0.1,0.2,0.3,0.3,0.5,0.3s0.3-0.1,0.4-0.2
						c0.1,0.1,0.2,0.1,0.3,0.1c0.1,0,0.2-0.1,0.3-0.2c0.1,0.2,0.3,0.3,0.6,0.3c0.2,0,0.4-0.1,0.6-0.3c0,0,0.1,0,0.2,0
						c0.2,0,0.4-0.2,0.4-0.4C1685.5-390.9,1685.4-391,1685.2-391.1z"/>
				</g>
			</g>
		</g>
		<g>
			
				<radialGradient id="SVGID_00000148650655062085788490000002508923681181556408_" cx="1311.7305" cy="602.595" r="1.3946" gradientTransform="matrix(1.9378 -0.129 -6.640000e-02 -0.9978 -847.7344 375.7521)" gradientUnits="userSpaceOnUse">
				<stop  offset="0" style="stop-color:#676767"/>
				<stop  offset="7.037508e-02" style="stop-color:#787878"/>
				<stop  offset="0.292" style="stop-color:#A8A8A8"/>
				<stop  offset="0.5027" style="stop-color:#CECECE"/>
				<stop  offset="0.6969" style="stop-color:#E9E9E9"/>
				<stop  offset="0.8687" style="stop-color:#F9F9F9"/>
				<stop  offset="1" style="stop-color:#FFFFFF"/>
			</radialGradient>
			<path style="opacity:0.3;fill:url(#SVGID_00000148650655062085788490000002508923681181556408_);enable-background:new    ;" d="
				M1656.8-394.9c0.1,0.8-1.1,1.5-2.6,1.6s-2.7-0.4-2.8-1.2c-0.1-0.8,1.1-1.5,2.6-1.6S1656.8-395.7,1656.8-394.9z"/>
			<g>
				<g>
					<path class="st35" d="M1655.5-395.2c0-0.3-0.3-0.5-0.6-0.5c-0.1,0-0.2,0-0.3,0.1c0-0.1-0.2-0.2-0.3-0.2c-0.1,0-0.2,0-0.2,0.1
						c-0.1-0.2-0.3-0.3-0.5-0.3c-0.3,0-0.5,0.2-0.6,0.4c-0.1-0.1-0.2-0.1-0.3-0.1c-0.2,0-0.3,0.1-0.3,0.2h-0.1
						c-0.3,0-0.6,0.3-0.6,0.6c0,0.3,0.3,0.6,0.6,0.6c0.1,0,0.2,0,0.3-0.1c0.1,0.2,0.3,0.3,0.5,0.3s0.3-0.1,0.4-0.2
						c0.1,0.1,0.2,0.1,0.3,0.1c0.1,0,0.2-0.1,0.3-0.2c0.1,0.2,0.3,0.3,0.6,0.3c0.2,0,0.4-0.1,0.6-0.3c0,0,0.1,0,0.2,0
						c0.2,0,0.4-0.2,0.4-0.4C1655.7-395,1655.6-395.1,1655.5-395.2z"/>
				</g>
			</g>
		</g>
		<path class="st30" d="M1660.3-407.7l0.3,0.5c0,0,0,0,0.1,0.1l0.6,0.1c0.1,0,0.1,0.1,0.1,0.2l-0.4,0.4v0.1l0.1,0.6
			c0,0.1-0.1,0.1-0.1,0.1l-0.5-0.3h-0.1l-0.5,0.3c-0.1,0-0.2,0-0.1-0.1l0.1-0.6v-0.1l-0.4-0.4c-0.1-0.1,0-0.2,0.1-0.2l0.6-0.1
			c0,0,0.1,0,0.1-0.1l0.3-0.5C1660.2-407.8,1660.3-407.8,1660.3-407.7z"/>
		<path class="st30" d="M1675.7-407.7l0.3,0.5c0,0,0,0,0.1,0.1l0.6,0.1c0.1,0,0.1,0.1,0.1,0.2l-0.4,0.4v0.1l0.1,0.6
			c0,0.1-0.1,0.1-0.1,0.1l-0.5-0.3h-0.1l-0.5,0.3c-0.1,0-0.2,0-0.1-0.1l0.1-0.6v-0.1l-0.4-0.4c-0.1-0.1,0-0.2,0.1-0.2l0.6-0.1
			c0,0,0.1,0,0.1-0.1l0.3-0.5C1675.5-407.8,1675.6-407.8,1675.7-407.7z"/>
		<path class="st39" d="M1667.7-412l0.1,0.2l0,0h0.2c0,0,0,0,0,0.1l-0.1,0.1l0,0v0.2l0,0l-0.2-0.1l0,0l-0.2,0.1c0,0-0.1,0,0,0v-0.2
			l0,0l-0.1-0.1v-0.1h0.2l0,0L1667.7-412L1667.7-412z"/>
		<path class="st30" d="M1661.6-411l0.1,0.2l0,0h0.2c0,0,0,0,0,0.1l-0.1,0.1l0,0v0.2l0,0l-0.2-0.1l0,0l-0.2,0.1c0,0-0.1,0,0,0v-0.2
			l0,0l-0.1-0.1v-0.1h0.2l0,0L1661.6-411C1661.5-411,1661.6-411,1661.6-411z"/>
		<path class="st30" d="M1649-399.5l0.1,0.3l0,0h0.3c0,0,0.1,0.1,0,0.1l-0.2,0.2l0,0l0.1,0.3c0,0,0,0.1-0.1,0.1l-0.3-0.1l0,0
			l-0.3,0.1c0,0-0.1,0-0.1-0.1l0.1-0.3l0,0l-0.2-0.2v-0.1h0.3l0,0L1649-399.5C1648.9-399.5,1648.9-399.5,1649-399.5z"/>
		<path class="st40" d="M1655.1-408l0.1,0.1l0,0h0.2l0,0l-0.1,0.1l0,0v0.2l0,0l-0.1-0.1l0,0l-0.1,0.1l0,0v-0.2l0,0l-0.1-0.1l0,0h0.2
			l0,0L1655.1-408L1655.1-408z"/>
		<g>
			
				<radialGradient id="SVGID_00000088097184574111223710000008899577244072979639_" cx="1320.783" cy="200.5003" r="3.354" gradientTransform="matrix(1.9378 -0.129 -0.1561 -2.3461 -857.1463 234.5075)" gradientUnits="userSpaceOnUse">
				<stop  offset="0" style="stop-color:#676767"/>
				<stop  offset="7.037508e-02" style="stop-color:#787878"/>
				<stop  offset="0.292" style="stop-color:#A8A8A8"/>
				<stop  offset="0.5027" style="stop-color:#CECECE"/>
				<stop  offset="0.6969" style="stop-color:#E9E9E9"/>
				<stop  offset="0.8687" style="stop-color:#F9F9F9"/>
				<stop  offset="1" style="stop-color:#FFFFFF"/>
			</radialGradient>
			<path style="opacity:0.3;fill:url(#SVGID_00000088097184574111223710000008899577244072979639_);enable-background:new    ;" d="
				M1677.5-406.7c0.3,4.3-2.4,8.1-6,8.3c-3.6,0.2-6.7-3.1-7-7.4s2.4-8.1,6-8.3C1674-414.4,1677.2-411.1,1677.5-406.7z"/>
			<path class="st35" d="M1675.1-403.5c-0.5,0.3-1,0.6-1.5,0.7c-2.5,0.7-5.1-0.8-5.8-3.4s0.8-5.1,3.4-5.8c0.6-0.2,1.1-0.2,1.7-0.1
				c-1.6,1.1-2.4,3.1-1.8,5.1S1673.1-403.7,1675.1-403.5z"/>
		</g>
	</g>
</g>
<rect x="2291.9" y="-159.7" transform="matrix(0.7071 -0.7071 0.7071 0.7071 708.0043 1757.7339)" class="st42" width="367.8" height="367.8"/>
<path d="M503-427.7c0-20.9,0-40.9,0-60.9c0-7.8,0.1-15.7-0.1-23.5c-0.1-8.3-5-13-13.1-13c-59.2,0-118.3-0.1-177.5-0.1
	c-8.9,0-13.4,4.7-13.5,14.2c0,41.7,0,83.3,0,125c0,71.8-0.1,143.6-0.1,215.5c0,5,0.1,10,0.1,15c0.1,8.7,5.1,13.6,13.7,13.5
	c34.3-0.1,68.6-0.1,103-0.1c24.3,0,48.7,0,73,0c9.8,0,14.4-4.5,14.4-14.4c0-33,0-66,0-99c0-1.8,0-3.6,0-5.7c3.8,0,7,0,11.7,0
	c0,9.6,0,19,0,28.4c-0.1,29-0.3,58-0.3,86.9c0,12.2-5.2,21.3-15.3,25c-2.3,0.9-4.8,1.5-7.3,1.5c-32.3,0.1-64.7,0.1-97,0.1
	c-27,0-54-0.2-81,0c-16,0.1-26.3-9.5-26.3-25.4c0-34.8,0.1-69.6,0.1-104.5c0-37.7-0.1-75.3-0.1-113c0-26.8,0.1-53.6,0.2-80.5
	c0-22.7,0-45.3,0-68c0-17.1,9.6-26.3,26.8-26.2c57.5,0.1,115,0,172.5,0.1c4.1,0,8.4,0.4,12.2,1.9c9.3,3.5,14.7,10.4,14.8,20.5
	c0.3,27.5,0.2,55,0.3,82.5c0,3.1-1.1,4.2-4.1,4C508-427.9,505.9-427.7,503-427.7z"/>
<path d="M415.9-375.8c2.8,6.2,5.1,11.6,7.8,16.9c0.5,0.9,2.9,1.1,4.4,1.2c17,0.1,34,0.1,51,0.2c1,0,2,0,3,0.1
	c3.4,0.4,5.7,1.9,5.6,5.7c-0.1,3.5-2.4,5-5.7,5c-7.8,0.1-15.7,0.1-23.5,0.1c-9.4,0-18.8,0-29.5,0c3.3,7.3,5.9,13.6,9.1,19.5
	c0.7,1.2,3.8,1.6,5.8,1.6c26.3,0.1,52.7,0.1,79,0c5.3,0,10.7-0.3,16,0.1c3.8,0.3,5.5-0.9,6.8-4.6c11.9-34.6,24.1-69.1,36.2-103.7
	c2.8-7.9,3.5-8.6,11.7-8.6c9.2,0,18.3,0,27.5,0c3.7,0,6.8,1,6.9,5.4c0.1,4.3-2.9,5.7-6.6,5.7c-8.3,0.1-16.7,0.1-25,0
	c-2.7,0-4.1,0.7-5.1,3.5c-11.4,32.9-22.9,65.7-34.4,98.5c-0.3,0.9-0.4,1.9-0.7,3.7c2.3,0,4.2,0,6.1,0c14.3,0.3,26.2,11.8,26.3,25.4
	c0.1,14-11.6,26-26.1,26.1c-40,0.2-80,0.1-120,0c-2.2,0-4.8-0.7-6.3-2c-1.1-1-1.8-4.2-1.1-5.3c1.3-1.7,3.8-3.4,5.9-3.5
	c11.2-0.3,22.3-0.1,33.5-0.1c29,0,58,0,87-0.1c9.5,0,16.3-6.5,16.2-14.8c-0.1-8.4-6.9-14.7-16.3-14.7c-43.3-0.1-86.6,0-130,0
	c-1,0-2,0-3,0c-3.4,0-7.6-0.2-7.8-4.3c-0.1-2.5,2.5-5.2,3.9-7.8c0.5,0.1,1.1,0.3,1.6,0.4c-3-6.8-6-13.6-9.1-20.4
	c-8.8-19.2-17.6-38.4-26.4-57.7c-3.4-7.4-1.4-10.5,6.9-10.5c50.2,0,100.3,0,150.5,0.1c5.1,0,8.2,2.1,7.8,5.5c-0.6,4.8-4,5.4-8.1,5.4
	c-46.5-0.1-93-0.1-139.5-0.1c-1.5,0-2.9,0-5.3,0c2.7,5.9,4.7,11.1,7.4,16c0.6,1.1,3.5,1.4,5.3,1.4c39.2,0,78.3,0,117.5,0
	c2,0,4.3-0.6,5.9,0.2c2.2,1.2,5,3.2,5.4,5.3c0.7,3.4-2.1,5.4-5.6,5.4c-7.3,0.1-14.7,0.1-22,0.1c-31.5,0-63,0-94.5,0
	C420.5-375.8,418.7-375.8,415.9-375.8z"/>
<path d="M423.1-189.7c-0.1,12.7-9.9,22.3-22.7,22.1c-12.3-0.2-22.3-10.2-22.2-22.4c0-12.3,10.3-22.5,22.7-22.4
	C413.6-212.3,423.3-202.4,423.1-189.7z"/>
<path d="M490.4-252.7c0,9.6-7.4,17.3-16.8,17.5c-9.6,0.1-17.6-7.8-17.5-17.3c0.1-9.3,8-17.1,17.3-17
	C482.6-269.6,490.4-261.8,490.4-252.7z M473-246.4c3.9-0.1,6.4-2.5,6.4-6c0-3.8-2.1-5.8-5.8-6c-3.6-0.2-6.7,2.8-6.3,6.2
	C467.6-248.6,469.7-246.6,473-246.4z"/>
<path d="M568.2-252.7c0,9.6-7.4,17.3-16.8,17.5c-9.6,0.1-17.6-7.8-17.5-17.3c0.1-9.3,8-17.1,17.3-17
	C560.4-269.6,568.2-261.8,568.2-252.7z M550.7-246.4c3.9-0.1,6.4-2.5,6.4-6c0-3.8-2.1-5.8-5.8-6c-3.6-0.2-6.7,2.8-6.3,6.2
	C545.4-248.6,547.5-246.6,550.7-246.4z"/>
<path d="M516.8-346.8c-3.5,0-7,0-10.4,0c-3.4,0-6-1.4-6.2-5c-0.1-3.7,2.2-5.8,5.9-5.9c7-0.1,13.9-0.1,20.9,0c3.8,0,6.7,1.5,6.6,5.7
	c-0.1,4.3-3.2,5.4-6.9,5.3C523.4-346.7,520.1-346.7,516.8-346.8C516.8-346.7,516.8-346.8,516.8-346.8z"/>
<path d="M400.9-516.8c6.2,0,12.3-0.2,18.4,0.2c1.6,0.1,3,2.2,4.5,3.3c-1.5,1.2-2.9,3.4-4.4,3.4c-12.5,0.3-24.9,0.3-37.4,0
	c-1.5,0-2.9-2.3-4.3-3.6c1.4-1.1,2.8-3,4.2-3.1C388.3-517,394.6-516.8,400.9-516.8C400.9-516.8,400.9-516.8,400.9-516.8z"/>
</svg>
