<?xml version="1.0" encoding="utf-8"?>
<!-- Generator: Adobe Illustrator 26.5.0, SVG Export Plug-In . SVG Version: 6.00 Build 0)  -->
<svg version="1.1" id="Calque_1" xmlns="http://www.w3.org/2000/svg" xmlns:xlink="http://www.w3.org/1999/xlink" x="0px" y="0px"
	 viewBox="0 0 100 100" style="enable-background:new 0 0 100 100;" xml:space="preserve">
<style type="text/css">
	.st0{fill:none;stroke:#FCFCFC;stroke-width:2;stroke-miterlimit:10;}
</style>
<path class="st0" d="M86.1,36.5c-1.1,2.4-2,4.5-3,6.6c-0.2,0.4-1.1,0.4-1.7,0.5c-6.6,0-13.3,0-19.9,0.1c-0.4,0-0.8,0-1.2,0
	c-1.3,0.1-2.2,0.8-2.2,2.2c0.1,1.4,0.9,1.9,2.2,2c3.1,0,6.1,0,9.2,0c3.7,0,7.4,0,11.5,0c-1.3,2.8-2.3,5.3-3.5,7.6
	C77.2,55.9,76,56,75.2,56c-10.3,0-20.5,0-30.8,0c-2.1,0-4.2-0.1-6.2,0c-1.5,0.1-2.2-0.4-2.7-1.8c-4.7-13.5-9.4-27-14.1-40.5
	c-1.1-3.1-1.4-3.3-4.6-3.3c-3.6,0-7.1,0-10.7,0c-1.5,0-2.7,0.4-2.7,2.1c-0.1,1.7,1.1,2.2,2.6,2.2c3.2,0,6.5,0,9.7,0
	c1.1,0,1.6,0.3,2,1.4c4.4,12.8,8.9,25.6,13.4,38.4c0.1,0.4,0.2,0.7,0.3,1.4c-0.9,0-1.6,0-2.4,0c-5.6,0.1-10.2,4.6-10.3,9.9
	c-0.1,5.5,4.5,10.1,10.2,10.2c15.6,0.1,31.2,0,46.8,0c0.8,0,1.9-0.3,2.5-0.8c0.4-0.4,0.7-1.6,0.4-2.1c-0.5-0.7-1.5-1.3-2.3-1.4
	c-4.4-0.1-8.7,0-13.1,0c-11.3,0-22.6,0-33.9,0c-3.7,0-6.4-2.5-6.3-5.8c0.1-3.3,2.7-5.7,6.4-5.7c16.9,0,33.8,0,50.7,0
	c0.4,0,0.8,0,1.2,0c1.3,0,2.9-0.1,3-1.7c0.1-1-1-2-1.5-3c-0.2,0.1-0.4,0.1-0.6,0.2c1.2-2.7,2.3-5.3,3.5-8c3.4-7.5,6.9-15,10.3-22.5
	c1.3-2.9,0.5-4.1-2.7-4.1c-19.6,0-39.1,0-58.7,0c-2,0-3.2,0.8-3,2.2c0.2,1.9,1.6,2.1,3.2,2.1c18.1,0,36.3,0,54.4-0.1
	c0.6,0,1.1,0,2.1,0c-1,2.3-1.8,4.3-2.9,6.2c-0.2,0.4-1.4,0.6-2.1,0.6c-15.3,0-30.6,0-45.8,0c-0.8,0-1.7-0.2-2.3,0.1
	c-0.9,0.5-2,1.2-2.1,2.1c-0.3,1.3,0.8,2.1,2.2,2.1c2.9,0,5.7,0,8.6,0c12.3,0,24.6,0,36.9,0C84.3,36.5,85,36.5,86.1,36.5z"/>
<path class="st0" d="M63.7,77.9c3.7,0,6.7,3,6.8,6.6c0,3.7-3.1,6.8-6.8,6.8c-3.7-0.1-6.6-3.1-6.6-6.8C57.1,81,60.1,77.9,63.7,77.9z"
	/>
<path class="st0" d="M33.3,77.9c3.7,0,6.7,3,6.8,6.6c0,3.7-3.1,6.8-6.8,6.8c-3.7-0.1-6.6-3.1-6.6-6.8C26.7,81,29.8,77.9,33.3,77.9z"
	/>
<path class="st0" d="M46.8,47.8c1.4,0,2.7,0,4.1,0c1.3,0,2.4-0.5,2.4-2c0.1-1.5-0.9-2.3-2.3-2.3c-2.7,0-5.4,0-8.1,0
	c-1.5,0-2.6,0.6-2.6,2.2c0,1.7,1.2,2.1,2.7,2.1C44.2,47.8,45.5,47.8,46.8,47.8C46.8,47.8,46.8,47.8,46.8,47.8z"/>
</svg>
