<?xml version="1.0" encoding="utf-8"?>
<!-- Generator: Adobe Illustrator 26.5.0, SVG Export Plug-In . SVG Version: 6.00 Build 0)  -->
<svg version="1.1" id="Calque_1" xmlns="http://www.w3.org/2000/svg" xmlns:xlink="http://www.w3.org/1999/xlink" x="0px" y="0px"
	 viewBox="0 0 100 50" style="enable-background:new 0 0 100 50;" xml:space="preserve">
<style type="text/css">
	.st0{fill:#FFFDF8;}
</style>
<g>
	<g>
		<g>
			<path class="st0" d="M93.2,21.1c-0.9-6.7-6.6-11.9-13.6-11.9c-2.2,0-4.4,0.5-6.2,1.5C72.3,8,69.5,6,66.4,6
				c-2.1,0-3.9,0.8-5.3,2.1C58.1,4.4,53.5,2,48.4,2C41.7,2,36,6.1,33.5,11.8c-1.6-2.1-4.2-3.5-7.1-3.5c-3.7,0-6.8,2.2-8.2,5.4
				c-1-0.3-2.1-0.4-3.2-0.4C7.3,13.2,1.2,19.4,1.2,27c0,7.6,6.1,13.7,13.7,13.7c2.5,0,4.8-0.7,6.8-1.8c2.3,4.3,6.9,7.2,12.1,7.2
				c4.3,0,8.1-2,10.6-5c1.4,2,3.7,3.2,6.3,3.2c3.2,0,5.9-2,7.1-4.7C60.6,44,65.6,47,71.3,47c5.7,0,10.8-3,13.6-7.5
				c1.1,0.5,2.4,0.7,3.7,0.7c5.6,0,10.1-4.5,10.1-10.1C98.8,26.2,96.5,22.8,93.2,21.1z"/>
		</g>
	</g>
</g>
</svg>
