<?xml version="1.0" encoding="utf-8"?>
<!-- Generator: Adobe Illustrator 26.5.0, SVG Export Plug-In . SVG Version: 6.00 Build 0)  -->
<svg version="1.1" id="Calque_1" xmlns="http://www.w3.org/2000/svg" xmlns:xlink="http://www.w3.org/1999/xlink" x="0px" y="0px"
	 viewBox="0 0 30 30" style="enable-background:new 0 0 30 30;" xml:space="preserve">
<style type="text/css">
	.st0{fill:#584A30;}
</style>
<path class="st0" d="M11.8,16.7c-0.2,0-0.4,0-0.6,0c-0.9,0-1.8,0-2.7,0c-0.5,0-0.7-0.2-0.7-0.7c0-1.4,0-2.8,0-4.1
	c0-0.5,0.2-0.7,0.7-0.7c1,0,1.9,0,2.9,0c0.1,0,0.2,0,0.4,0c0-0.2,0-0.3,0-0.4c0-1.2,0-2.5,0.1-3.7c0.3-3.1,2.7-5.4,5.8-5.5
	c1.3,0,2.6,0,3.9,0c0.4,0,0.6,0.2,0.6,0.6c0,1.3,0,2.6,0,3.9c0,0.4-0.2,0.6-0.7,0.6c-0.9,0-1.8,0-2.7,0c-1,0-1.4,0.4-1.5,1.4
	c0,1,0,1.9,0,3c0.1,0,0.3,0,0.4,0c1.1,0,2.3,0,3.4,0c0.7,0,0.9,0.2,0.9,0.9c0,1.3,0,2.6,0,3.9c0,0.6-0.2,0.8-0.8,0.8
	c-1.2,0-2.3,0-3.5,0c-0.1,0-0.2,0-0.4,0c0,0.2,0,0.3,0,0.4c0,3.4,0,6.9,0,10.3c0,0.9-0.1,1-1,1c-1.3,0-2.5,0-3.8,0
	c-0.7,0-0.9-0.2-0.9-0.8c0-3.5,0-6.9,0-10.4C11.8,17.1,11.8,16.9,11.8,16.7z"/>
</svg>
