<?xml version="1.0" encoding="utf-8"?>
<!-- Generator: Adobe Illustrator 26.5.0, SVG Export Plug-In . SVG Version: 6.00 Build 0)  -->
<svg version="1.1" id="Calque_1" xmlns="http://www.w3.org/2000/svg" xmlns:xlink="http://www.w3.org/1999/xlink" x="0px" y="0px"
	 viewBox="0 0 30 30" style="enable-background:new 0 0 30 30;" xml:space="preserve">
<style type="text/css">
	.st0{fill:#584A30;}
</style>
<g>
	<path class="st0" d="M15.6,0c0.7,0.1,1.4,0.2,2.1,0.4c1.7,0.4,3.1,1.3,4.4,2.6c1.4,1.4,2.3,3.1,2.7,5.1c0.5,2.4,0.1,4.7-1.1,6.8
		c-2.7,4.9-5.4,9.7-8.1,14.6c-0.1,0.2-0.3,0.4-0.5,0.5c-0.1,0-0.2,0-0.4,0c-0.2-0.2-0.4-0.3-0.5-0.5c-2.7-4.9-5.4-9.7-8.1-14.6
		c-1-1.8-1.5-3.8-1.2-5.9C5.4,5.8,7,3.3,9.7,1.5c1.4-0.9,2.9-1.4,4.5-1.5c0.1,0,0.1,0,0.2,0C14.8,0,15.2,0,15.6,0z M15,28.1
		c0.1-0.1,0.1-0.1,0.1-0.2c2.5-4.6,5.1-9.1,7.6-13.7c1.2-2.2,1.4-4.5,0.7-6.8c-1.3-4.1-5.3-6.6-9.5-6c-2.3,0.3-4.1,1.4-5.6,3.1
		c-2.3,2.8-2.6,6.6-0.9,9.8c2.5,4.5,5,9,7.5,13.5C14.9,27.9,14.9,28,15,28.1z"/>
	<path class="st0" d="M10,10c0-2.8,2.2-5,5-5c2.7,0,5,2.3,5,5c0,2.8-2.2,5-5,5C12.3,15,10,12.8,10,10z M15,6.2
		c-2.1,0-3.7,1.7-3.7,3.7c0,2.1,1.7,3.8,3.8,3.8c2.1,0,3.7-1.7,3.7-3.8C18.7,7.9,17.1,6.3,15,6.2z"/>
</g>
</svg>
