<?xml version="1.0" encoding="utf-8"?>
<!-- Generator: Adobe Illustrator 26.5.0, SVG Export Plug-In . SVG Version: 6.00 Build 0)  -->
<svg version="1.1" id="Calque_1" xmlns="http://www.w3.org/2000/svg" xmlns:xlink="http://www.w3.org/1999/xlink" x="0px" y="0px"
	 viewBox="0 0 30 30" style="enable-background:new 0 0 30 30;" xml:space="preserve">
<style type="text/css">
	.st0{fill:#584A30;}
</style>
<g>
	<path class="st0" d="M19.1,29.6c-2.9,0-5.8,0-8.7,0c-0.2,0-0.4,0-0.5,0c-1.2,0-2.3-0.1-3.4-0.4c-2.4-0.6-4.1-1.9-5.2-4.2
		c-0.6-1.4-0.9-2.9-0.9-4.4c0-3.1-0.1-6.3,0-9.4c0-1.3,0.1-2.6,0.3-3.9c0.3-2,1.3-3.7,2.9-4.9C5,1.4,6.6,1,8.4,0.9
		c0.7,0,1.4-0.1,2.1-0.1c2.9,0,5.7,0,8.6,0c0.7,0,1.3,0.1,2,0.1c1.2,0.1,2.3,0.3,3.4,0.8c2.7,1.2,4,3.3,4.5,6.1
		c0.1,0.5,0.1,1,0.2,1.5c0,3.9,0,7.7,0,11.6c0,0.1,0,0.2,0,0.3c-0.1,0.6-0.1,1.1-0.2,1.7c-0.3,1.8-1.1,3.4-2.5,4.6
		c-1.5,1.3-3.3,1.9-5.3,2C20.5,29.5,19.8,29.6,19.1,29.6z M14.8,27.1C14.8,27.1,14.8,27,14.8,27.1c0.8,0,1.5,0,2.3,0
		c1.6-0.1,3.3,0,4.9-0.2c2.1-0.3,3.6-1.5,4.2-3.6c0.3-1,0.3-2,0.4-3c0-2.6,0.1-5.1,0-7.7c0-1.5-0.1-3-0.2-4.6
		c-0.3-2.3-1.7-3.9-4-4.3c-1-0.2-2-0.3-3-0.3c-2.5,0-5,0-7.5,0c-1.4,0-2.9,0-4.3,0.2C5.2,4,3.7,5.4,3.3,7.6C3.1,8.5,3,9.5,3,10.5
		c0,2.3-0.1,4.6,0,7C3,19,3,20.7,3.2,22.3C3.3,23.8,4,25,5.3,25.9c1,0.7,2.1,0.9,3.3,1C10.6,27,12.7,27,14.8,27.1z"/>
	<path class="st0" d="M14.8,22.6c-4.1,0-7.4-3.3-7.4-7.4c0-4.1,3.3-7.4,7.4-7.4c4.1,0,7.4,3.3,7.4,7.4
		C22.2,19.2,18.9,22.6,14.8,22.6z M10,15.2c0,2.7,2.1,4.8,4.8,4.8c2.7,0,4.8-2.1,4.8-4.8c0-2.7-2.1-4.8-4.8-4.8
		C12.1,10.4,10,12.5,10,15.2z"/>
	<path class="st0" d="M24.2,7.5c0,1-0.8,1.7-1.7,1.7c-1,0-1.7-0.8-1.7-1.7c0-1,0.8-1.7,1.7-1.7C23.4,5.8,24.2,6.5,24.2,7.5z"/>
</g>
</svg>
