<?xml version="1.0" encoding="utf-8"?>
<!-- Generator: Adobe Illustrator 26.5.0, SVG Export Plug-In . SVG Version: 6.00 Build 0)  -->
<svg version="1.1" id="Calque_1 Cloud" xmlns="http://www.w3.org/2000/svg" xmlns:xlink="http://www.w3.org/1999/xlink" x="0px" y="0px"
	 viewBox="0 0 250 250" style="enable-background:new 0 0 250 250;" xml:space="preserve">
<style type="text/css">
	.st0{opacity:0.35;fill:url(#SVGID_1_);}
	.st1{opacity:0.35;fill:url(#SVGID_00000147918370750763249140000016029419733183378352_);}
	.st2{opacity:0.2;fill:url(#SVGID_00000146485961525194484710000007616407369826503097_);}
	.st3{opacity:0.1;fill:url(#SVGID_00000073684517226997944160000004949310277042716305_);}
	.st4{opacity:0.35;fill:url(#SVGID_00000048495126591367847570000010877743288862469518_);}
	.st5{opacity:0.35;fill:url(#SVGID_00000142860342694697151100000008141545819104499606_);}
	.st6{opacity:0.35;fill:url(#SVGID_00000162314245989283367980000004222446624249738174_);}
	.st7{opacity:0.66;}
	.st8{opacity:0.4;}
	.st9{fill:#FFFFFF;}
	.st10{fill:none;stroke:#898989;stroke-width:0.25;stroke-miterlimit:10;}
	.st11{fill:none;stroke:#898989;stroke-width:0.25;stroke-miterlimit:10;stroke-dasharray:1.0086,1.0086;}
	.st12{fill:none;stroke:#898989;stroke-width:0.25;stroke-miterlimit:10;stroke-dasharray:1.0096,1.0096;}
	.st13{fill:#FFFDF8;}
	.st14{opacity:0.9;fill:#FFFFFF;}
	.st15{opacity:0.8;fill:#FFFFFF;}
</style>
<g>
	
		<radialGradient id="SVGID_1_" cx="170.5373" cy="220.006" r="81.8777" gradientTransform="matrix(0.7071 -0.7071 0.7071 0.7071 -153.9691 90.2858)" gradientUnits="userSpaceOnUse">
		<stop  offset="0" style="stop-color:#BAA072"/>
		<stop  offset="0.2647" style="stop-color:#BDA476;stop-opacity:0.8941"/>
		<stop  offset="0.5258" style="stop-color:#C8B081;stop-opacity:0.7897"/>
		<stop  offset="0.7847" style="stop-color:#D9C494;stop-opacity:0.6861"/>
		<stop  offset="1" style="stop-color:#EDDAAA;stop-opacity:0.6"/>
	</radialGradient>
	<polygon class="st0" points="238,125.3 122.2,241.1 6.4,125.3 122.2,9.5 	"/>
	
		<radialGradient id="SVGID_00000137822798931023473600000002393269308182813374_" cx="170.5373" cy="220.006" r="81.8777" gradientTransform="matrix(0.7071 -0.7071 0.7071 0.7071 -153.9691 90.2858)" gradientUnits="userSpaceOnUse">
		<stop  offset="0" style="stop-color:#BAA072"/>
		<stop  offset="0.2647" style="stop-color:#BDA476;stop-opacity:0.8941"/>
		<stop  offset="0.5258" style="stop-color:#C8B081;stop-opacity:0.7897"/>
		<stop  offset="0.7847" style="stop-color:#D9C494;stop-opacity:0.6861"/>
		<stop  offset="1" style="stop-color:#EDDAAA;stop-opacity:0.6"/>
	</radialGradient>
	<polygon style="opacity:0.35;fill:url(#SVGID_00000137822798931023473600000002393269308182813374_);" points="238,125.3 
		122.2,241.1 6.4,125.3 122.2,9.5 	"/>
	<g>
		<g>
			
				<linearGradient id="SVGID_00000037650271326368840980000008756093158534046857_" gradientUnits="userSpaceOnUse" x1="122.1867" y1="122.62" x2="122.1867" y2="68.194">
				<stop  offset="0" style="stop-color:#FFFFFF;stop-opacity:0.6"/>
				<stop  offset="8.574789e-02" style="stop-color:#F7F7F7;stop-opacity:0.6343"/>
				<stop  offset="0.2185" style="stop-color:#E1E1E1;stop-opacity:0.6874"/>
				<stop  offset="0.3815" style="stop-color:#BEBEBE;stop-opacity:0.7526"/>
				<stop  offset="0.5686" style="stop-color:#8C8C8C;stop-opacity:0.8274"/>
				<stop  offset="0.7761" style="stop-color:#4D4D4D;stop-opacity:0.9104"/>
				<stop  offset="0.9978" style="stop-color:#010101;stop-opacity:0.9991"/>
				<stop  offset="1" style="stop-color:#000000"/>
			</linearGradient>
			<polygon style="opacity:0.2;fill:url(#SVGID_00000037650271326368840980000008756093158534046857_);" points="122.2,14.5 
				11.9,124.8 232.5,124.8 			"/>
			
				<linearGradient id="SVGID_00000170279947851574816240000004913128006817297041_" gradientUnits="userSpaceOnUse" x1="107.1482" y1="-43.6959" x2="107.1482" y2="-98.1219" gradientTransform="matrix(-1 0 0 -1 229.3349 83.2692)">
				<stop  offset="0" style="stop-color:#000000"/>
				<stop  offset="7.380247e-03" style="stop-color:#090909;stop-opacity:0.997"/>
				<stop  offset="4.767627e-02" style="stop-color:#373737;stop-opacity:0.9809"/>
				<stop  offset="9.308982e-02" style="stop-color:#626262;stop-opacity:0.9628"/>
				<stop  offset="0.1419" style="stop-color:#888888;stop-opacity:0.9432"/>
				<stop  offset="0.195" style="stop-color:#A8A8A8;stop-opacity:0.922"/>
				<stop  offset="0.2537" style="stop-color:#C4C4C4;stop-opacity:0.8985"/>
				<stop  offset="0.32" style="stop-color:#DADADA;stop-opacity:0.872"/>
				<stop  offset="0.3974" style="stop-color:#EBEBEB;stop-opacity:0.841"/>
				<stop  offset="0.4931" style="stop-color:#F6F6F6;stop-opacity:0.8028"/>
				<stop  offset="0.6274" style="stop-color:#FDFDFD;stop-opacity:0.7491"/>
				<stop  offset="1" style="stop-color:#FFFFFF;stop-opacity:0.6"/>
			</linearGradient>
			<polygon style="opacity:0.1;fill:url(#SVGID_00000170279947851574816240000004913128006817297041_);" points="122.2,235.1 
				232.5,124.8 11.9,124.8 			"/>
		</g>
		
			<radialGradient id="SVGID_00000107578544961128657300000005243900726860982918_" cx="170.8716" cy="219.8298" r="70.3561" gradientTransform="matrix(0.7071 -0.7071 0.7086 0.7086 -154.4051 89.8497)" gradientUnits="userSpaceOnUse">
			<stop  offset="0" style="stop-color:#BAA072"/>
			<stop  offset="0.2647" style="stop-color:#BDA476;stop-opacity:0.8941"/>
			<stop  offset="0.5258" style="stop-color:#C8B081;stop-opacity:0.7897"/>
			<stop  offset="0.7847" style="stop-color:#D9C494;stop-opacity:0.6861"/>
			<stop  offset="1" style="stop-color:#EDDAAA;stop-opacity:0.6"/>
		</radialGradient>
		<polygon style="opacity:0.35;fill:url(#SVGID_00000107578544961128657300000005243900726860982918_);" points="221.8,124.9 
			122.3,224.4 22.6,124.7 122.1,25.2 		"/>
	</g>
	
		<radialGradient id="SVGID_00000087404948282309566840000003500734223635304879_" cx="170.8716" cy="219.6716" r="81.8777" gradientTransform="matrix(0.7071 -0.7071 0.7071 0.7071 -153.9691 90.2858)" gradientUnits="userSpaceOnUse">
		<stop  offset="0" style="stop-color:#BAA072"/>
		<stop  offset="0.2647" style="stop-color:#BDA476;stop-opacity:0.8941"/>
		<stop  offset="0.5258" style="stop-color:#C8B081;stop-opacity:0.7897"/>
		<stop  offset="0.7847" style="stop-color:#D9C494;stop-opacity:0.6861"/>
		<stop  offset="1" style="stop-color:#EDDAAA;stop-opacity:0.6"/>
	</radialGradient>
	<polygon style="opacity:0.35;fill:url(#SVGID_00000087404948282309566840000003500734223635304879_);" points="238,124.8 
		122.2,240.6 6.4,124.8 122.2,9 	"/>
	
		<radialGradient id="SVGID_00000050644849448035925220000012394660883460693675_" cx="170.8716" cy="219.6716" r="81.8777" gradientTransform="matrix(0.7071 -0.7071 0.7071 0.7071 -153.9691 90.2858)" gradientUnits="userSpaceOnUse">
		<stop  offset="0" style="stop-color:#BAA072"/>
		<stop  offset="0.2647" style="stop-color:#BDA476;stop-opacity:0.8941"/>
		<stop  offset="0.5258" style="stop-color:#C8B081;stop-opacity:0.7897"/>
		<stop  offset="0.7847" style="stop-color:#D9C494;stop-opacity:0.6861"/>
		<stop  offset="1" style="stop-color:#EDDAAA;stop-opacity:0.6"/>
	</radialGradient>
	<polygon style="opacity:0.35;fill:url(#SVGID_00000050644849448035925220000012394660883460693675_);" points="238,124.8 
		122.2,240.6 6.4,124.8 122.2,9 	"/>
	<g class="st7">
		<path class="st8" d="M241.8,77.4l-8.1,1.3l-8.7-8.9l-11.4-1.4c0,0,4.2,4.6,5.6,6.3c-3.9,0.5-9.4,1.2-9.4,1.2L223,86.1l1.7,17.4
			l6.1-8.6l-2-2.2l6.8-7.8l3.2-4l9.8,1.3L241.8,77.4z"/>
		<polygon class="st8" points="235.7,84.8 228.9,92.6 223,86.1 		"/>
		<path class="st8" d="M235.7,84.8L223,86.1l-13.3-10.2c0,0,5.6-0.7,9.4-1.2c2-0.3,3.6-0.5,3.6-0.5c0.1,0,3.3,2.6,6.4,5.2
			C232.5,82.1,235.7,84.8,235.7,84.8z"/>
		<path class="st8" d="M241.8,77.4l-2.8,3.5l-3.2,4c0,0-3.2-2.7-6.5-5.4l4.4-0.7L241.8,77.4z"/>
	</g>
	<g>
		<path class="st7" d="M24.9,113.9V90.5h11.4c2.9,0,5.1,0.5,6.7,1.6c1.6,1,2.3,2.6,2.3,4.7c0,1.3-0.3,2.3-0.8,3.3
			c-0.6,0.9-1.4,1.7-2.4,2.2c-1.1,0.6-2.4,1-3.9,1.2l0.1,0.1l0.2,0.1c0.6,0.2,1.2,0.4,1.7,0.7c0.5,0.3,1,0.8,1.5,1.5l5.4,8h-2.2
			l-5-7.5c-0.5-0.7-1-1.2-1.4-1.6c-0.5-0.4-1-0.6-1.7-0.8c-0.7-0.1-1.6-0.2-2.7-0.2h-7.3v10.1H24.9z M26.7,102h9.8
			c2.5,0,4.2-0.4,5.3-1.2c1.1-0.8,1.6-2.1,1.6-3.9c0-1.8-0.6-3-1.7-3.7c-1.1-0.7-3-1-5.5-1h-9.5V102z"/>
		<path class="st7" d="M54.1,113.9V90.5h18.1v1.8H55.9v8.9h15v1.8h-15v9.2h16.3v1.8H54.1z"/>
		<path class="st7" d="M88.3,113.9L75.8,90.5h2.1l11.2,20.9h0.2l11.2-20.9h2.1l-12.4,23.4H88.3z"/>
		<path class="st7" d="M107.7,113.9V90.5h18.1v1.8h-16.3v8.9h15v1.8h-15v9.2h16.3v1.8H107.7z"/>
		<path class="st7" d="M133.8,113.9V90.5h11.4c2.9,0,5.1,0.5,6.7,1.6c1.6,1,2.3,2.6,2.3,4.7c0,1.3-0.3,2.3-0.8,3.3
			c-0.6,0.9-1.4,1.7-2.4,2.2c-1.1,0.6-2.3,1-3.9,1.2l0.1,0.1l0.2,0.1c0.6,0.2,1.2,0.4,1.7,0.7c0.5,0.3,1,0.8,1.5,1.5l5.4,8h-2.2
			l-5-7.5c-0.5-0.7-1-1.2-1.4-1.6c-0.5-0.4-1-0.6-1.7-0.8c-0.7-0.1-1.6-0.2-2.7-0.2h-7.3v10.1H133.8z M135.7,102h9.8
			c2.5,0,4.2-0.4,5.3-1.2c1.1-0.8,1.6-2.1,1.6-3.9c0-1.8-0.6-3-1.7-3.7c-1.1-0.7-3-1-5.5-1h-9.5V102z"/>
		<path class="st7" d="M163.1,113.9V90.5h1.9v23.4H163.1z"/>
		<path class="st7" d="M174.5,113.9V90.5h18.1v1.8h-16.3v8.9h15v1.8h-15v9.2h16.3v1.8H174.5z"/>
		<path class="st7" d="M209.7,114.1c-1.5,0-3-0.1-4.4-0.3c-1.4-0.2-2.7-0.5-3.8-1c-1.2-0.5-2.2-1.1-3-1.8l1-1.6
			c1,0.8,2.1,1.4,3.2,1.8c1.1,0.4,2.2,0.7,3.4,0.9c1.2,0.2,2.4,0.2,3.7,0.2c2.5,0,4.5-0.4,6-1.2c1.5-0.8,2.2-2,2.2-3.5
			c0-1-0.3-1.8-0.8-2.4c-0.5-0.6-1.2-1-2.2-1.2c-0.9-0.3-2.1-0.5-3.4-0.7l-5.6-0.8c-2.6-0.4-4.4-1.1-5.4-2.1c-1-1-1.5-2.3-1.5-3.8
			c0-1.3,0.4-2.5,1.3-3.4c0.9-1,2.1-1.7,3.7-2.2c1.6-0.5,3.4-0.8,5.5-0.8c1.4,0,2.7,0.1,3.9,0.4c1.2,0.2,2.3,0.6,3.2,1.1
			c1,0.5,1.8,1.1,2.6,1.8l-1,1.6c-1.2-1.1-2.5-2-3.9-2.4s-3-0.7-4.8-0.7c-1.7,0-3.2,0.2-4.5,0.5c-1.3,0.3-2.3,0.9-3.1,1.5
			c-0.7,0.7-1.1,1.5-1.1,2.6c0,1.2,0.4,2.1,1.2,2.8c0.8,0.6,2.2,1.1,4.2,1.4l5.5,0.8c2.7,0.4,4.7,1,5.9,1.9c1.3,0.9,1.9,2.3,1.9,4
			c0,1.3-0.4,2.5-1.2,3.5c-0.8,1-2,1.7-3.5,2.3C213.5,113.9,211.8,114.1,209.7,114.1z"/>
		<g>
			<path class="st9" d="M119.4,128c-0.6,0-1.2-0.1-1.6-0.4c-0.5-0.3-0.8-0.6-1.1-1.1c-0.3-0.5-0.4-1.1-0.4-1.8
				c0-0.7,0.1-1.3,0.4-1.8s0.6-0.9,1-1.2c0.4-0.3,1-0.4,1.5-0.4c0.6,0,1,0.1,1.4,0.4c0.4,0.2,0.7,0.6,0.9,1.1c0.2,0.5,0.3,1,0.3,1.6
				v0.3h-5.2v-0.5h4.9l-0.2,0.2c0-0.8-0.2-1.4-0.5-1.9c-0.4-0.5-0.9-0.7-1.6-0.7c-0.5,0-0.9,0.1-1.3,0.4c-0.4,0.2-0.6,0.6-0.8,1
				c-0.2,0.4-0.3,0.9-0.3,1.4v0.1c0,0.6,0.1,1.1,0.3,1.5c0.2,0.4,0.5,0.7,0.9,0.9c0.4,0.2,0.8,0.3,1.3,0.3c0.4,0,0.8-0.1,1.1-0.2
				c0.3-0.1,0.7-0.3,1-0.6l0.3,0.5c-0.3,0.3-0.6,0.5-1.1,0.7C120.3,127.9,119.8,128,119.4,128z"/>
		</g>
		<g>
			<path class="st9" d="M125.9,128c-0.7,0-1.2-0.2-1.5-0.6c-0.3-0.4-0.5-0.9-0.5-1.6v-3.9h-1.3v-0.5h1.3v-2h0.6v2h2.1v0.5h-2.1v3.7
				c0,0.6,0.1,1,0.3,1.3c0.2,0.3,0.6,0.5,1.2,0.5c0.2,0,0.3,0,0.5-0.1c0.1,0,0.3-0.1,0.4-0.1l0.1,0.5c-0.1,0.1-0.2,0.1-0.4,0.2
				C126.3,128,126.1,128,125.9,128z"/>
		</g>
		<path class="st7" d="M24.6,160.1v-24h9.6c1.8,0,3.4,0.3,4.6,0.8c1.2,0.5,2.2,1.3,2.8,2.4c0.6,1,0.9,2.3,0.9,3.9
			c0,1.5-0.3,2.8-0.9,3.8c-0.6,1.1-1.6,1.9-2.8,2.4c-1.2,0.5-2.8,0.8-4.6,0.8h-7.9v10H24.6z M26.3,148.5h7.9c2.2,0,3.9-0.5,5-1.4
			c1.1-0.9,1.7-2.3,1.7-4.2c0-1.8-0.5-3.2-1.6-4.1c-1.1-0.9-2.8-1.4-5-1.4h-7.9V148.5z"/>
		<path class="st7" d="M47.4,160.1v-24h15.7v1.5H49.1v9.5h13.2v1.5H49.1v9.9h14.1v1.5H47.4z"/>
		<path class="st7" d="M74.9,160.1v-22.5H65V136h21.5v1.5h-9.9v22.5H74.9z"/>
		<path class="st7" d="M90.1,160.1v-24h1.7v24H90.1z"/>
		<path class="st7" d="M105.3,160.1v-22.5h-9.9V136h21.5v1.5h-9.9v22.5H105.3z"/>
		<path class="st7" d="M128.4,160.3c-1.3,0-2.6-0.1-3.7-0.3s-2.2-0.6-3.2-1c-1-0.5-1.8-1-2.6-1.6l0.8-1.4c0.9,0.7,1.8,1.2,2.6,1.6
			c0.9,0.4,1.8,0.7,2.8,0.9c1,0.2,2.1,0.3,3.4,0.3c2.4,0,4.2-0.4,5.5-1.3c1.3-0.9,1.9-2,1.9-3.5c0-0.9-0.2-1.6-0.6-2.2
			c-0.4-0.6-1-1-1.9-1.4c-0.8-0.4-1.9-0.7-3.2-0.9l-3.9-0.7c-2.3-0.4-4-1.1-5.1-2.1c-1.1-1-1.7-2.4-1.7-4.1c0-1.4,0.4-2.6,1.1-3.6
			c0.7-1,1.8-1.8,3.1-2.4c1.3-0.6,2.9-0.9,4.6-0.9c1.2,0,2.3,0.1,3.4,0.4c1,0.2,2,0.6,2.9,1.1c0.9,0.5,1.7,1.1,2.4,1.8l-0.8,1.4
			c-1.1-1.1-2.3-1.9-3.6-2.3c-1.2-0.5-2.7-0.7-4.2-0.7c-1.5,0-2.7,0.2-3.8,0.6c-1.1,0.4-1.9,1-2.5,1.8c-0.6,0.8-0.9,1.7-0.9,2.8
			c0,1.3,0.4,2.3,1.2,3.1c0.8,0.7,2.1,1.2,4,1.6l3.9,0.7c2.5,0.5,4.3,1.1,5.5,2.1c1.2,0.9,1.8,2.2,1.8,3.9c0,1.3-0.4,2.4-1.1,3.4
			c-0.7,1-1.8,1.7-3.2,2.2C131.9,160.1,130.3,160.3,128.4,160.3z"/>
		<path class="st7" d="M151.7,160.1v-24h9.6c1.8,0,3.4,0.3,4.6,0.8c1.2,0.5,2.2,1.3,2.8,2.4c0.6,1,0.9,2.3,0.9,3.9
			c0,1.5-0.3,2.8-0.9,3.8c-0.6,1.1-1.6,1.9-2.8,2.4c-1.2,0.5-2.8,0.8-4.6,0.8h-7.9v10H151.7z M153.3,148.5h7.9c2.2,0,3.9-0.5,5-1.4
			c1.1-0.9,1.7-2.3,1.7-4.2c0-1.8-0.5-3.2-1.6-4.1c-1.1-0.9-2.8-1.4-5-1.4h-7.9V148.5z"/>
		<path class="st7" d="M174.4,160.1v-24h1.7v22.5h13.8v1.5H174.4z"/>
		<path class="st7" d="M193.9,160.1v-24h1.7v24H193.9z"/>
		<path class="st7" d="M210.5,160.3c-1.3,0-2.6-0.1-3.7-0.3c-1.2-0.2-2.2-0.6-3.2-1c-1-0.5-1.8-1-2.6-1.6l0.8-1.4
			c0.9,0.7,1.8,1.2,2.6,1.6c0.9,0.4,1.8,0.7,2.8,0.9c1,0.2,2.1,0.3,3.4,0.3c2.4,0,4.2-0.4,5.5-1.3c1.3-0.9,1.9-2,1.9-3.5
			c0-0.9-0.2-1.6-0.6-2.2c-0.4-0.6-1-1-1.9-1.4c-0.8-0.4-1.9-0.7-3.2-0.9l-3.9-0.7c-2.3-0.4-4-1.1-5.1-2.1c-1.1-1-1.7-2.4-1.7-4.1
			c0-1.4,0.4-2.6,1.1-3.6c0.8-1,1.8-1.8,3.1-2.4c1.3-0.6,2.9-0.9,4.6-0.9c1.2,0,2.3,0.1,3.4,0.4c1,0.2,2,0.6,2.9,1.1
			c0.9,0.5,1.7,1.1,2.4,1.8l-0.8,1.4c-1.1-1.1-2.3-1.9-3.6-2.3c-1.2-0.5-2.7-0.7-4.2-0.7c-1.5,0-2.7,0.2-3.8,0.6
			c-1.1,0.4-1.9,1-2.5,1.8c-0.6,0.8-0.9,1.7-0.9,2.8c0,1.3,0.4,2.3,1.2,3.1c0.8,0.7,2.1,1.2,4,1.6l3.9,0.7c2.5,0.5,4.3,1.1,5.5,2.1
			c1.2,0.9,1.8,2.2,1.8,3.9c0,1.3-0.4,2.4-1.1,3.4c-0.7,1-1.8,1.7-3.2,2.2C214,160.1,212.4,160.3,210.5,160.3z"/>
	</g>
	<g>
		<g>
			<line class="st10" x1="12.2" y1="124.8" x2="12.7" y2="124.8"/>
			<line class="st11" x1="13.7" y1="124.8" x2="112.1" y2="124.8"/>
			<line class="st10" x1="112.6" y1="124.8" x2="113.1" y2="124.8"/>
		</g>
	</g>
	<g>
		<g>
			<line class="st10" x1="128.4" y1="124.8" x2="128.9" y2="124.8"/>
			<line class="st12" x1="129.9" y1="124.8" x2="230.4" y2="124.8"/>
			<line class="st10" x1="230.9" y1="124.8" x2="231.4" y2="124.8"/>
		</g>
	</g>
	<g>
		<g>
			<g>
				<g>
					<path class="st13" d="M101.3,51.5c-0.3-2.5-2.4-4.4-5-4.4c-0.8,0-1.6,0.2-2.3,0.6c-0.4-1-1.4-1.7-2.6-1.7
						c-0.8,0-1.4,0.3-1.9,0.8c-1.1-1.4-2.8-2.3-4.7-2.3c-2.5,0-4.6,1.5-5.5,3.6c-0.6-0.8-1.6-1.3-2.6-1.3c-1.3,0-2.5,0.8-3,2
						c-0.4-0.1-0.8-0.1-1.2-0.1c-2.8,0-5.1,2.3-5.1,5c0,2.8,2.3,5.1,5.1,5.1c0.9,0,1.8-0.2,2.5-0.7c0.9,1.6,2.5,2.7,4.4,2.7
						c1.6,0,3-0.7,3.9-1.9c0.5,0.7,1.3,1.2,2.3,1.2c1.2,0,2.2-0.7,2.6-1.7c1.1,1.6,2.9,2.7,5,2.7c2.1,0,4-1.1,5-2.7
						c0.4,0.2,0.9,0.3,1.4,0.3c2.1,0,3.7-1.7,3.7-3.7C103.4,53.4,102.5,52.1,101.3,51.5z"/>
				</g>
			</g>
		</g>
		<g>
			<g>
				<g>
					<path class="st13" d="M174,63c-0.5-1.6-2.2-2.7-3.9-2.4c-0.6,0.1-1.1,0.3-1.5,0.6c-0.4-0.6-1.2-1-1.9-0.9
						c-0.5,0.1-0.9,0.4-1.2,0.8c-0.9-0.8-2.1-1.2-3.4-1c-1.7,0.3-2.9,1.5-3.3,3.1c-0.5-0.5-1.2-0.7-1.9-0.6
						c-0.9,0.2-1.6,0.8-1.8,1.7c-0.3,0-0.5,0-0.8,0c-1.9,0.3-3.2,2.1-2.8,4c0.3,1.9,2.1,3.2,4,2.8c0.6-0.1,1.2-0.4,1.6-0.7
						c0.8,1,2,1.5,3.3,1.3c1.1-0.2,1.9-0.8,2.4-1.7c0.4,0.4,1.1,0.7,1.7,0.5c0.8-0.1,1.4-0.7,1.6-1.5c0.9,1,2.3,1.5,3.7,1.3
						c1.4-0.2,2.6-1.2,3.1-2.4c0.3,0.1,0.6,0.1,0.9,0c1.4-0.2,2.3-1.6,2.1-2.9C175.6,64.1,174.9,63.3,174,63z"/>
				</g>
			</g>
		</g>
		<g>
			<g>
				<g>
					<path class="st13" d="M168.6,85.2c-0.1-0.7-0.7-1.2-1.4-1.2c-0.2,0-0.4,0.1-0.6,0.2c-0.1-0.3-0.4-0.5-0.7-0.5
						c-0.2,0-0.4,0.1-0.5,0.2c-0.3-0.4-0.8-0.6-1.3-0.6c-0.7,0-1.3,0.4-1.5,1c-0.2-0.2-0.4-0.4-0.7-0.4c-0.4,0-0.7,0.2-0.8,0.5
						c-0.1,0-0.2,0-0.3,0c-0.8,0-1.4,0.6-1.4,1.4c0,0.8,0.6,1.4,1.4,1.4c0.3,0,0.5-0.1,0.7-0.2c0.2,0.4,0.7,0.7,1.2,0.7
						c0.4,0,0.8-0.2,1.1-0.5c0.1,0.2,0.4,0.3,0.6,0.3c0.3,0,0.6-0.2,0.7-0.5c0.3,0.5,0.8,0.8,1.4,0.8c0.6,0,1.1-0.3,1.4-0.8
						c0.1,0,0.2,0.1,0.4,0.1c0.6,0,1-0.5,1-1C169.2,85.7,168.9,85.4,168.6,85.2z"/>
				</g>
			</g>
		</g>
		<g>
			<g>
				<g>
					<path class="st13" d="M95.2,75.1c-0.1-0.7-0.7-1.2-1.4-1.2c-0.2,0-0.4,0.1-0.6,0.2c-0.1-0.3-0.4-0.5-0.7-0.5
						c-0.2,0-0.4,0.1-0.5,0.2c-0.3-0.4-0.8-0.6-1.3-0.6c-0.7,0-1.3,0.4-1.5,1c-0.2-0.2-0.4-0.4-0.7-0.4c-0.4,0-0.7,0.2-0.8,0.5
						c-0.1,0-0.2,0-0.3,0c-0.8,0-1.4,0.6-1.4,1.4c0,0.8,0.6,1.4,1.4,1.4c0.3,0,0.5-0.1,0.7-0.2c0.2,0.4,0.7,0.7,1.2,0.7
						c0.4,0,0.8-0.2,1.1-0.5c0.1,0.2,0.4,0.3,0.6,0.3c0.3,0,0.6-0.2,0.7-0.5c0.3,0.5,0.8,0.8,1.4,0.8c0.6,0,1.1-0.3,1.4-0.8
						c0.1,0,0.2,0.1,0.4,0.1c0.6,0,1-0.5,1-1C95.8,75.6,95.6,75.3,95.2,75.1z"/>
				</g>
			</g>
		</g>
		<path class="st9" d="M107.1,44.4l0.6,1.3c0,0.1,0.1,0.1,0.2,0.1l1.4,0.2c0.2,0,0.3,0.3,0.1,0.4l-1,1c-0.1,0.1-0.1,0.1-0.1,0.2
			l0.2,1.4c0,0.2-0.2,0.3-0.3,0.2l-1.3-0.7c-0.1,0-0.1,0-0.2,0l-1.3,0.7c-0.2,0.1-0.4-0.1-0.3-0.2l0.2-1.4c0-0.1,0-0.2-0.1-0.2l-1-1
			c-0.1-0.1-0.1-0.4,0.1-0.4l1.4-0.2c0.1,0,0.1-0.1,0.2-0.1l0.6-1.3C106.7,44.2,107,44.2,107.1,44.4z"/>
		<path class="st9" d="M145,44.4l0.6,1.3c0,0.1,0.1,0.1,0.2,0.1l1.4,0.2c0.2,0,0.3,0.3,0.1,0.4l-1,1c-0.1,0.1-0.1,0.1-0.1,0.2
			l0.2,1.4c0,0.2-0.2,0.3-0.3,0.2l-1.3-0.7c-0.1,0-0.1,0-0.2,0l-1.3,0.7c-0.2,0.1-0.4-0.1-0.3-0.2l0.2-1.4c0-0.1,0-0.2-0.1-0.2l-1-1
			c-0.1-0.1-0.1-0.4,0.1-0.4l1.4-0.2c0.1,0,0.1-0.1,0.2-0.1l0.6-1.3C144.7,44.2,144.9,44.2,145,44.4z"/>
		<path class="st14" d="M125.4,33.7l0.2,0.5c0,0,0,0,0.1,0l0.5,0.1c0.1,0,0.1,0.1,0,0.1l-0.4,0.4c0,0,0,0,0,0.1l0.1,0.5
			c0,0.1-0.1,0.1-0.1,0.1l-0.4-0.2c0,0-0.1,0-0.1,0l-0.4,0.2c-0.1,0-0.1,0-0.1-0.1l0.1-0.5c0,0,0-0.1,0-0.1l-0.4-0.4
			c0,0,0-0.1,0-0.1l0.5-0.1c0,0,0,0,0.1,0l0.2-0.5C125.3,33.6,125.4,33.6,125.4,33.7z"/>
		<path class="st9" d="M110.3,36.2l0.2,0.5c0,0,0,0,0.1,0l0.5,0.1c0.1,0,0.1,0.1,0,0.1l-0.4,0.4c0,0,0,0,0,0.1l0.1,0.5
			c0,0.1-0.1,0.1-0.1,0.1l-0.4-0.2c0,0-0.1,0-0.1,0l-0.4,0.2c-0.1,0-0.1,0-0.1-0.1l0.1-0.5c0,0,0-0.1,0-0.1l-0.4-0.4
			c0,0,0-0.1,0-0.1l0.5-0.1c0,0,0,0,0.1,0l0.2-0.5C110.2,36.2,110.2,36.2,110.3,36.2z"/>
		<path class="st9" d="M79.2,64.5l0.3,0.7c0,0,0.1,0.1,0.1,0.1l0.8,0.1c0.1,0,0.1,0.1,0.1,0.2l-0.5,0.5c0,0,0,0.1,0,0.1L80,67
			c0,0.1-0.1,0.2-0.2,0.1l-0.7-0.4c0,0-0.1,0-0.1,0l-0.7,0.4c-0.1,0-0.2,0-0.2-0.1l0.1-0.8c0,0,0-0.1,0-0.1l-0.5-0.5
			c-0.1-0.1,0-0.2,0.1-0.2l0.8-0.1c0,0,0.1,0,0.1-0.1l0.3-0.7C79,64.4,79.1,64.4,79.2,64.5z"/>
		<path class="st15" d="M94.3,43.6l0.2,0.4c0,0,0,0,0,0l0.4,0.1c0.1,0,0.1,0.1,0,0.1l-0.3,0.3c0,0,0,0,0,0.1l0.1,0.4
			c0,0.1,0,0.1-0.1,0.1l-0.4-0.2c0,0,0,0-0.1,0L93.8,45c0,0-0.1,0-0.1-0.1l0.1-0.4c0,0,0,0,0-0.1l-0.3-0.3c0,0,0-0.1,0-0.1l0.4-0.1
			c0,0,0,0,0,0l0.2-0.4C94.2,43.6,94.3,43.6,94.3,43.6z"/>
		<g>
			<path class="st13" d="M143.5,54.7c-1.1,0.8-2.4,1.4-3.8,1.8c-6.2,1.7-12.7-2-14.3-8.3s2-12.7,8.3-14.3c1.4-0.4,2.8-0.5,4.2-0.3
				c-3.9,2.8-5.8,7.7-4.5,12.5C134.6,50.9,138.8,54.2,143.5,54.7z"/>
		</g>
	</g>
</g>
</svg>
