<?xml version="1.0" encoding="utf-8"?>
<!-- Generator: Adobe Illustrator 26.5.0, SVG Export Plug-In . SVG Version: 6.00 Build 0)  -->
<svg version="1.1" id="Calque_1" xmlns="http://www.w3.org/2000/svg" xmlns:xlink="http://www.w3.org/1999/xlink" x="0px" y="0px"
	 viewBox="0 0 30 30" style="enable-background:new 0 0 30 30;" xml:space="preserve">
<style type="text/css">
	.st0{fill:#584A30;}
</style>
<path class="st0" d="M20.1,28.9c-3,0-5.4-1.3-7.4-3.3c-0.9-0.9-1.8-1.9-2.4-3c-1.3-2.3-2.7-4.5-4-6.8c-1.2-2.2-1.8-4.5-1.6-7
	c0.3-3.1,1.7-5.5,4.4-7.2c0.1-0.1,0.2-0.1,0.4-0.2c1-0.6,1.9-0.4,2.5,0.3c0.6,0.5,1.1,1.1,1.5,1.8c0.7,1.1,1.3,2.2,1.7,3.5
	c0.4,1.5-0.1,2.7-1.5,3.5c-0.3,0.1-0.5,0.3-0.8,0.4c-1.1,0.5-1.1,1.3-1,2.2c0,0.2,0.1,0.5,0.3,0.7c1.1,1.8,2.1,3.6,3.2,5.4
	c0.3,0.5,0.7,0.8,1.2,1.1c0.5,0.2,1,0.2,1.4-0.1c0.4-0.2,0.7-0.4,1.1-0.6c1.2-0.6,2.3-0.6,3.4,0.2c0.1,0.1,0.1,0.1,0.2,0.2
	c1.5,1.5,2.7,3.2,3.2,5.3c0.2,0.9,0.1,1.8-1.1,2.4C23.3,28.5,21.8,28.9,20.1,28.9z M20,27.5c1.3,0,2.5-0.3,3.7-0.9
	c1-0.5,1.1-0.6,0.6-1.7c-0.5-1.3-1.3-2.4-2.2-3.5c-0.2-0.2-0.5-0.5-0.7-0.6c-0.4-0.3-0.9-0.3-1.4,0c-0.4,0.3-0.9,0.5-1.4,0.8
	c-0.5,0.3-0.9,0.4-1.5,0.3c-1.4-0.1-2.4-0.7-3.1-1.8c-1.1-1.8-2.2-3.6-3.2-5.5c-0.2-0.4-0.4-0.9-0.5-1.4c-0.2-1.2,0.2-2.7,1.6-3.4
	c0.4-0.2,0.8-0.5,1.2-0.7c0.5-0.3,0.6-0.7,0.6-1.2c0-0.2,0-0.4-0.1-0.6c-0.5-1.6-1.3-2.9-2.3-4.2c-0.2-0.2-0.4-0.4-0.6-0.5
	c-0.1-0.1-0.3-0.1-0.4,0C10,2.8,9.7,3,9.4,3.2C7.3,4.7,6.2,6.8,6.1,9.4c-0.1,2.1,0.5,4,1.5,5.8c1.3,2.4,2.8,4.7,4.2,7.1
	c0.7,1.1,1.6,2.1,2.6,3C16,26.6,17.9,27.5,20,27.5z"/>
</svg>
